<?xml version="1.0" standalone="no"?>
<!DOCTYPE svg PUBLIC "-//W3C//DTD SVG 20010904//EN"
 "http://www.w3.org/TR/2001/REC-SVG-20010904/DTD/svg10.dtd">
<svg version="1.0" xmlns="http://www.w3.org/2000/svg"
 width="208.000000pt" height="208.000000pt" viewBox="0 0 208.000000 208.000000"
 preserveAspectRatio="xMidYMid meet">

<g transform="translate(0.000000,208.000000) scale(0.100000,-0.100000)"
fill="#000000" stroke="none">
<path d="M1006 2071 c-3 -5 -32 -12 -63 -15 -144 -17 -245 -48 -373 -114 -107
-56 -171 -102 -250 -182 -86 -86 -140 -162 -192 -270 -67 -142 -87 -210 -104
-353 -3 -31 -10 -60 -15 -63 -12 -7 -12 -61 0 -68 5 -3 12 -32 15 -63 17 -143
37 -211 104 -353 95 -199 238 -345 442 -452 124 -66 228 -97 373 -114 31 -3
60 -10 63 -15 7 -12 61 -12 68 0 3 5 32 12 63 15 144 17 245 48 373 114 107
56 171 102 250 182 86 86 140 162 192 270 67 142 87 210 104 353 3 31 10 60
15 63 12 7 12 61 0 68 -5 3 -12 32 -15 63 -17 143 -37 211 -104 353 -95 199
-239 346 -442 452 -128 66 -229 97 -373 114 -31 3 -60 10 -63 15 -3 5 -18 9
-34 9 -16 0 -31 -4 -34 -9z m524 -487 c0 -1 -26 -24 -57 -50 -32 -25 -62 -53
-67 -62 -7 -11 8 -31 63 -83 l71 -68 0 -73 c-1 -72 -1 -74 -40 -113 l-40 -39
0 -138 0 -138 -105 -105 -104 -105 -201 0 c-134 0 -209 4 -223 12 -20 10 -49
38 -161 157 -21 23 -34 41 -28 41 6 0 14 -4 17 -10 16 -26 25 -4 25 59 0 39 5
73 11 77 7 4 10 -21 7 -83 l-3 -89 75 -73 75 -73 155 6 c85 3 173 6 196 6 36
0 48 7 108 64 l67 64 -3 129 -3 128 -119 3 c-108 2 -121 1 -137 -17 -11 -11
-19 -23 -19 -26 0 -12 -43 -95 -49 -95 -3 0 -17 24 -31 53 -42 89 -38 87 -168
87 -64 0 -113 2 -110 5 3 3 54 8 114 11 121 7 126 10 158 82 l20 43 -48 45
c-26 24 -52 44 -57 44 -5 0 -9 -20 -9 -45 l0 -45 -60 0 c-33 0 -60 4 -60 10 0
6 23 10 50 10 l50 0 0 54 c0 50 -2 55 -27 63 -22 8 -24 11 -10 16 16 6 99 -52
150 -105 26 -27 47 -22 93 20 22 20 79 70 127 111 48 41 86 79 84 85 -2 7 -37
11 -97 11 l-93 0 -34 -65 c-19 -36 -38 -69 -42 -73 -5 -5 -16 9 -26 30 -9 21
-26 55 -36 76 -22 43 -23 50 -9 45 5 -1 20 -23 32 -48 13 -24 28 -46 35 -48 7
-2 24 19 38 47 l25 51 126 0 126 0 36 34 c93 86 116 104 129 99 7 -3 13 -7 13
-9z m-570 -1099 c0 -13 -21 -15 -130 -15 -119 0 -142 4 -123 23 3 4 62 7 130
7 103 0 123 -2 123 -15z m420 0 c0 -13 -22 -15 -135 -15 -123 0 -147 4 -128
23 3 4 64 7 135 7 107 0 128 -2 128 -15z"/>
<path d="M1333 1413 c-17 -16 -44 -39 -60 -53 l-28 -25 43 -3 42 -3 0 -79 c0
-43 -3 -80 -7 -82 -5 -2 -41 -2 -80 0 l-73 4 0 39 c0 50 -18 51 -65 5 -41 -39
-42 -55 -11 -116 l23 -45 127 -3 127 -3 70 71 69 71 0 59 0 59 -67 65 c-38 36
-71 66 -74 66 -3 0 -19 -12 -36 -27z"/>
<path d="M1197 1293 c-4 -3 -7 -25 -7 -49 0 -48 9 -55 69 -47 l41 6 0 48 0 49
-48 0 c-27 0 -52 -3 -55 -7z"/>
<path d="M1009 1086 l-22 -43 23 -47 c13 -25 26 -46 30 -46 9 0 50 84 50 101
0 20 -38 79 -50 79 -6 0 -20 -20 -31 -44z"/>
<path d="M1407 1043 c-4 -3 -7 -55 -7 -115 0 -83 3 -109 13 -106 16 6 27 228
11 228 -6 0 -14 -3 -17 -7z"/>
</g>
</svg>
