<?xml version="1.0" standalone="no"?>
<!DOCTYPE svg PUBLIC "-//W3C//DTD SVG 20010904//EN"
 "http://www.w3.org/TR/2001/REC-SVG-20010904/DTD/svg10.dtd">
<svg version="1.0" xmlns="http://www.w3.org/2000/svg"
 width="570.000000pt" height="570.000000pt" viewBox="0 0 570.000000 570.000000"
 preserveAspectRatio="xMidYMid meet">

<g transform="translate(0.000000,570.000000) scale(0.100000,-0.100000)"
fill="#000000" stroke="none">
<path d="M0 5426 l0 -274 43 -17 c84 -33 117 -49 117 -57 0 -4 29 -8 65 -8 41
0 65 4 65 11 0 7 10 9 26 5 14 -4 62 -11 107 -16 82 -10 97 -13 213 -45 34
-10 77 -15 95 -12 62 10 134 28 166 43 17 8 38 14 47 14 9 0 16 3 16 8 0 7 45
21 135 42 22 5 59 18 82 29 38 19 42 25 48 68 8 61 36 121 69 152 32 30 36 66
6 58 -27 -7 -35 8 -13 25 10 7 24 25 30 40 12 26 11 28 -14 35 -16 3 -56 -1
-93 -10 -36 -9 -105 -19 -155 -22 -49 -4 -98 -11 -108 -17 -32 -17 -165 -13
-185 5 -17 15 -65 18 -78 4 -4 -3 -18 2 -32 11 -14 9 -29 16 -32 16 -3 -1 -9
0 -15 1 -5 2 -36 6 -67 8 -53 5 -118 37 -118 59 0 15 -40 48 -59 48 -19 0 -37
42 -26 60 4 6 1 10 -4 10 -6 0 -11 -9 -11 -19 0 -11 -4 -23 -10 -26 -6 -3 -10
-1 -10 6 0 8 -4 9 -13 0 -17 -14 -69 8 -62 27 3 9 -23 12 -110 12 l-115 0 0
-274z"/>
<path d="M2705 5674 c-31 -33 -33 -82 -4 -118 18 -23 27 -26 87 -26 37 0 94
-7 127 -15 73 -17 151 -19 195 -4 20 7 35 8 39 2 3 -5 14 -12 24 -16 9 -3 17
-15 17 -26 0 -11 5 -23 12 -27 8 -5 6 -10 -8 -14 -14 -6 -5 -10 31 -15 28 -4
93 -16 145 -28 102 -22 236 -31 245 -16 4 5 1 9 -6 9 -7 0 -10 2 -8 5 3 2 55
9 117 15 l112 10 68 -31 c37 -18 72 -39 78 -48 7 -9 26 -32 44 -51 61 -67 90
-121 90 -167 0 -30 -5 -45 -15 -49 -11 -5 -13 -10 -5 -19 8 -9 8 -14 0 -17
-13 -4 2 -35 41 -88 15 -19 41 -62 59 -95 18 -33 36 -64 40 -70 8 -11 41 -107
58 -170 28 -104 35 -169 28 -270 -7 -117 0 -129 44 -73 42 52 96 102 132 119
18 9 57 29 86 43 37 19 78 29 130 34 l77 7 -22 19 c-12 11 -20 24 -17 28 3 5
-1 17 -10 26 -9 11 -12 23 -6 31 5 9 3 22 -3 33 -9 14 -9 23 1 38 6 11 12 29
12 40 0 18 7 20 58 20 32 0 63 5 69 11 8 8 13 8 17 0 9 -15 42 -14 66 1 14 9
30 10 67 1 106 -25 143 -37 143 -45 0 -4 9 -8 20 -8 13 0 18 -5 14 -15 -4 -8
-2 -15 4 -15 10 0 26 -53 24 -85 0 -11 -5 -58 -11 -104 -6 -54 -7 -102 0 -134
5 -27 9 -51 9 -53 0 -2 7 -4 16 -4 8 0 13 -4 10 -9 -6 -9 67 -81 82 -81 4 0
27 -18 50 -40 24 -22 49 -40 56 -40 16 0 90 -71 111 -107 9 -15 35 -39 57 -53
22 -14 51 -35 64 -47 l24 -22 0 479 c0 322 -3 480 -10 480 -6 0 -25 13 -43 29
-32 29 -104 81 -112 81 -3 0 -33 17 -68 39 -34 21 -110 55 -167 75 l-105 36
-157 -4 c-155 -4 -197 -13 -233 -50 -20 -19 -35 -77 -35 -132 0 -29 -5 -65
-10 -80 l-11 -27 -28 34 c-30 35 -29 53 5 86 7 7 15 32 19 55 4 24 18 63 30
88 23 44 109 140 126 140 14 0 83 71 114 118 15 24 34 46 41 50 6 4 21 23 32
44 26 46 46 71 100 123 23 22 42 46 42 53 0 7 7 12 15 12 8 0 15 6 15 14 0 7
14 16 30 20 21 4 30 11 30 26 0 11 6 20 14 20 12 0 26 20 26 36 0 2 -179 4
-397 4 l-398 0 -18 -44 c-10 -25 -17 -64 -16 -92 4 -110 54 -284 81 -284 16 0
46 -38 58 -75 7 -23 8 -55 2 -101 -5 -37 -5 -84 -1 -103 5 -20 9 -60 9 -90 0
-43 -3 -52 -15 -47 -8 3 -15 1 -15 -5 0 -6 -9 -8 -22 -3 -30 9 -27 4 -34 55
-6 42 -26 112 -44 154 -4 11 -21 51 -36 90 -16 38 -45 94 -65 125 -64 98 -221
232 -319 270 -19 8 -37 16 -40 20 -10 11 -197 81 -283 105 l-87 25 -491 0
-490 0 -24 -26z m1982 -64 c-3 -21 -65 -26 -73 -6 -13 34 -10 52 10 63 18 10
24 8 43 -15 13 -15 22 -34 20 -42z m-507 -618 c25 -20 22 -37 -9 -45 -15 -3
-18 -1 -14 11 4 9 2 13 -4 9 -10 -6 -23 13 -23 34 0 15 26 10 50 -9z"/>
<path d="M5625 5680 c-10 -32 6 -89 30 -108 13 -10 25 -27 28 -38 2 -10 5 23
6 74 l1 92 -29 0 c-21 0 -32 -6 -36 -20z"/>
<path d="M33 4892 l-33 -16 0 -77 c0 -73 2 -79 28 -98 15 -12 33 -26 41 -32 7
-7 30 -13 50 -13 20 -1 54 -8 76 -16 51 -18 229 -20 270 -3 17 7 64 17 105 22
111 14 204 35 305 71 50 17 106 36 125 41 67 19 120 42 120 50 0 5 6 9 14 9
18 0 49 47 36 55 -10 6 -87 17 -120 17 -8 0 -62 -7 -120 -16 -143 -23 -141
-23 -265 -31 -73 -5 -142 -3 -205 5 -52 7 -111 14 -130 16 -19 2 -64 10 -100
18 -81 19 -155 18 -197 -2z"/>
<path d="M3924 4845 c3 -9 24 -42 46 -75 61 -89 93 -153 145 -285 58 -147 66
-165 77 -165 12 0 3 41 -28 140 -13 41 -24 85 -24 98 0 13 -14 37 -30 55 -17
18 -33 43 -37 57 -8 34 -31 68 -71 110 -19 19 -41 45 -49 57 -17 26 -38 31
-29 8z"/>
<path d="M2520 4740 c-11 -7 -7 -10 18 -10 17 0 32 5 32 10 0 13 -30 13 -50 0z"/>
<path d="M3170 4640 c0 -5 7 -10 16 -10 8 0 12 5 9 10 -3 6 -10 10 -16 10 -5
0 -9 -4 -9 -10z"/>
<path d="M1745 4610 c-4 -7 3 -8 22 -4 38 9 42 14 10 14 -14 0 -29 -5 -32 -10z"/>
<path d="M3290 4590 c8 -5 20 -10 25 -10 6 0 3 5 -5 10 -8 5 -19 10 -25 10 -5
0 -3 -5 5 -10z"/>
<path d="M1513 4553 c-35 -15 -61 -28 -58 -31 5 -5 135 34 155 48 31 21 -35 9
-97 -17z"/>
<path d="M2390 4571 c-36 -5 -72 -11 -80 -14 -8 -4 -58 -11 -110 -17 -209 -23
-247 -36 -310 -108 -53 -59 -68 -88 -52 -104 7 -7 15 -8 24 -1 11 8 87 31 208
63 19 5 62 17 95 27 71 21 270 24 350 6 28 -7 110 -14 184 -17 102 -4 138 -9
151 -21 10 -9 24 -15 31 -13 9 2 15 -7 17 -24 2 -16 -1 -28 -6 -28 -5 0 -12
-13 -14 -29 -2 -17 0 -27 5 -24 5 3 6 -4 2 -16 -4 -12 -2 -21 4 -21 6 0 11 -9
11 -20 0 -11 6 -20 14 -20 18 0 49 47 40 63 -4 7 -3 8 2 4 5 -5 13 7 20 25 8
26 20 36 60 50 75 27 114 16 209 -55 44 -34 86 -66 94 -72 28 -21 106 -104
120 -126 34 -55 61 -111 61 -125 0 -7 5 -14 10 -14 6 0 10 -6 10 -12 0 -17
-44 -68 -59 -68 -6 0 -11 -7 -11 -15 0 -8 -5 -15 -11 -15 -14 0 -99 -86 -99
-99 0 -6 4 -12 8 -15 5 -3 24 -36 42 -73 18 -37 39 -81 47 -98 32 -65 81 -235
93 -320 12 -84 39 -166 40 -122 0 10 4 16 9 13 5 -3 22 9 38 27 39 44 63 45
60 2 -2 -18 -11 -44 -20 -58 -9 -15 -17 -29 -17 -32 0 -17 -92 -145 -105 -145
-9 0 -15 -9 -15 -21 0 -24 -43 -115 -67 -141 -8 -9 -21 -14 -28 -12 -10 4 -12
-1 -8 -15 6 -23 23 -39 23 -22 0 5 18 20 39 32 21 12 44 32 50 45 13 29 190
300 217 333 65 80 88 91 186 91 60 0 71 9 40 32 -10 7 -26 25 -35 39 -10 14
-32 34 -50 44 -42 22 -51 45 -72 180 -30 198 -72 348 -121 441 -69 129 -131
231 -161 262 -10 10 -37 40 -61 66 -23 26 -64 62 -90 80 -27 18 -64 43 -83 57
-81 60 -216 110 -424 159 -61 14 -416 22 -505 11z"/>
<path d="M3350 4556 c0 -2 7 -7 16 -10 8 -3 12 -2 9 4 -6 10 -25 14 -25 6z"/>
<path d="M1255 4483 c-16 -2 -54 -8 -83 -14 -29 -6 -95 -12 -146 -13 -87 -2
-97 -4 -153 -38 -121 -72 -275 -104 -563 -118 -102 -5 -213 -9 -247 -10 -53 0
-63 -3 -63 -17 0 -15 10 -18 62 -18 82 0 186 -10 195 -18 3 -4 -11 -7 -33 -7
-22 0 -50 -7 -63 -16 -27 -19 -76 -21 -97 -3 -8 6 -17 9 -21 6 -3 -4 -14 -2
-24 4 -18 9 -19 4 -19 -89 l0 -99 58 -1 c64 -1 167 -36 207 -70 18 -16 25 -32
25 -57 0 -44 17 -52 79 -38 46 11 132 39 161 53 9 4 30 11 49 15 18 4 47 19
64 34 18 16 79 49 137 76 116 53 116 53 215 84 39 13 97 37 130 53 33 17 74
38 90 46 17 9 32 18 35 22 12 16 121 60 148 60 30 0 129 31 159 50 27 17 -111
2 -145 -16 -15 -8 -34 -14 -43 -14 -9 0 -22 -6 -28 -13 -11 -15 -26 -15 -79
-3 -24 6 -32 12 -27 23 5 13 -2 15 -40 10 -25 -4 -59 -13 -75 -22 -16 -8 -38
-15 -50 -15 -12 0 -18 -4 -15 -11 5 -6 -9 -9 -40 -8 -25 2 -48 6 -50 9 -2 3
-33 2 -69 -4 -70 -10 -87 -5 -70 21 13 21 44 30 159 48 50 8 118 18 151 24 65
10 98 24 152 64 27 20 29 25 15 28 -10 3 -31 3 -48 2z m-460 -192 c-3 -6 -18
-11 -33 -10 l-27 1 30 13 c32 14 41 13 30 -4z"/>
<path d="M2517 4239 c-10 -6 -24 -8 -32 -5 -8 3 -15 1 -17 -4 -2 -5 -23 -11
-46 -14 -24 -2 -46 -6 -48 -9 -8 -7 190 -19 208 -12 9 4 19 2 22 -4 5 -7 15
-7 31 -1 18 7 35 5 58 -5 17 -8 53 -17 80 -20 26 -3 47 -10 47 -16 0 -5 9 -9
20 -9 11 0 20 5 20 10 0 6 -8 10 -17 10 -15 0 -16 2 -3 10 12 8 12 10 -5 10
-11 1 -38 8 -60 16 -55 21 -184 53 -215 53 -14 0 -33 -4 -43 -10z"/>
<path d="M2915 4170 c4 -6 11 -8 16 -5 14 9 11 15 -7 15 -8 0 -12 -5 -9 -10z"/>
<path d="M4595 4171 c-71 -18 -63 -26 27 -29 85 -2 154 -16 296 -61 34 -10 62
-16 62 -13 0 13 -69 54 -130 78 -65 27 -199 40 -255 25z"/>
<path d="M4235 4049 c-7 -97 -25 -170 -57 -232 -11 -22 -17 -41 -15 -44 3 -2
25 17 49 43 23 26 53 58 65 70 35 36 63 87 63 117 0 15 -3 27 -7 27 -5 0 -24
25 -42 55 -19 30 -38 55 -42 55 -3 0 -10 -41 -14 -91z"/>
<path d="M2030 4079 c-188 -7 -254 -20 -375 -69 -40 -17 -124 -32 -136 -24 -8
4 -9 3 -5 -4 5 -8 -7 -11 -36 -11 -24 0 -76 -11 -117 -25 -40 -14 -78 -23 -83
-20 -6 4 -20 2 -31 -4 -24 -10 -135 -29 -260 -42 -43 -4 -83 -12 -90 -18 -7
-5 -27 -13 -45 -17 -30 -6 -33 -10 -27 -33 9 -40 33 -54 80 -47 22 4 56 13 75
21 19 9 44 19 55 24 47 20 161 50 191 50 52 0 211 36 269 61 11 5 43 14 70 19
62 12 532 23 490 11 -22 -6 -1 -9 75 -10 131 -3 182 -8 189 -20 3 -5 28 -12
55 -16 76 -12 117 -55 52 -55 -19 0 -37 -4 -41 -9 -6 -11 42 -51 62 -51 31 0
211 -123 212 -145 1 -6 19 -30 41 -54 22 -24 40 -45 40 -48 0 -2 18 -26 39
-53 22 -27 42 -55 45 -62 5 -10 7 -10 12 0 5 10 10 10 24 -3 15 -14 16 -22 7
-50 -9 -31 -8 -36 16 -55 14 -11 31 -37 38 -58 7 -20 29 -59 50 -87 42 -56 81
-147 73 -168 -3 -8 2 -17 10 -20 9 -4 16 -15 16 -25 0 -10 7 -27 15 -38 8 -10
15 -34 15 -53 0 -18 9 -49 21 -67 21 -35 20 -83 -3 -111 -6 -8 -7 -37 -3 -73
8 -68 -2 -77 -35 -30 -12 17 -26 27 -31 24 -6 -3 -20 2 -31 13 -21 18 -21 18
-13 -22 4 -22 8 -49 9 -60 1 -11 6 -23 11 -27 6 -5 5 -8 -3 -8 -9 0 -9 -5 -2
-17 5 -10 14 -38 19 -63 5 -25 19 -83 30 -130 28 -116 27 -227 -5 -380 -7 -34
-5 -33 39 26 26 34 47 65 47 68 0 6 12 26 161 256 100 155 208 263 287 287 64
19 41 32 -24 14 -44 -12 -56 -7 -29 13 43 31 195 59 195 36 0 -5 10 -10 23
-10 13 0 28 -5 33 -10 6 -6 30 -13 53 -16 41 -6 184 -71 293 -132 113 -65 343
-220 395 -267 6 -5 26 -21 44 -35 18 -14 53 -42 78 -64 24 -21 70 -57 100 -80
66 -49 251 -197 302 -240 36 -32 118 -100 151 -126 10 -8 62 -57 116 -109 53
-51 117 -109 141 -130 25 -20 54 -45 66 -56 24 -22 50 -44 113 -93 l42 -34 0
26 c0 14 -4 26 -8 26 -5 0 -20 9 -33 20 -31 26 -41 33 -63 45 -10 6 -16 12
-15 15 5 9 -34 49 -42 44 -5 -2 -16 7 -25 21 -9 13 -20 23 -24 20 -4 -2 -46
33 -92 78 -47 46 -116 110 -154 142 -38 33 -74 65 -80 70 -6 6 -27 24 -48 40
-21 17 -53 44 -72 62 -19 17 -43 35 -54 38 -11 3 -20 11 -20 17 0 6 -2 9 -5 6
-3 -3 -18 6 -34 21 -15 14 -56 49 -91 76 -35 28 -72 58 -81 67 -10 10 -35 29
-56 42 -56 37 -73 52 -73 64 0 7 -11 14 -25 18 -14 3 -22 10 -19 15 3 5 -1 9
-9 9 -14 0 -165 115 -200 151 -10 10 -24 19 -31 19 -8 0 -16 7 -20 15 -3 8
-15 15 -26 15 -12 0 -20 7 -20 16 0 10 -5 14 -16 10 -8 -3 -12 -2 -9 4 3 6 -5
10 -19 10 -16 0 -25 5 -24 13 2 6 -5 11 -14 9 -10 -2 -18 2 -18 8 0 5 -3 9 -7
8 -5 -1 -44 15 -87 35 -43 20 -82 37 -87 37 -4 0 -20 7 -36 15 -15 8 -59 27
-98 42 -63 25 -81 28 -192 28 -82 -1 -127 -5 -135 -13 -19 -19 -26 -15 -48 26
-19 34 -20 26 -4 -28 14 -45 -13 -15 -48 53 -47 92 -52 155 -13 185 32 25 45
62 52 142 8 107 1 199 -23 275 -19 59 -104 233 -136 279 -78 110 -308 326
-347 326 -6 0 -11 4 -11 8 0 5 -12 14 -26 21 -15 6 -24 14 -21 17 8 9 137 -69
145 -88 2 -4 9 -8 16 -8 13 0 47 -27 125 -99 24 -23 47 -39 49 -36 7 6 -38 45
-52 45 -8 0 -7 3 0 8 9 5 8 11 -2 20 -8 7 -14 11 -14 9 0 -2 -20 15 -45 39
-25 25 -69 60 -99 79 -30 19 -57 39 -61 44 -7 12 -92 52 -160 76 -27 9 -59 21
-70 26 -97 41 -325 54 -705 38z m1089 -1621 c0 -28 -2 -30 -9 -13 -12 28 -12
45 0 45 6 0 10 -15 9 -32z"/>
<path d="M2975 4040 c3 -5 8 -10 11 -10 2 0 4 5 4 10 0 6 -5 10 -11 10 -5 0
-7 -4 -4 -10z"/>
<path d="M4062 3618 c-7 -7 -12 -17 -12 -23 0 -5 -10 -21 -23 -35 -26 -28 -47
-80 -47 -117 0 -18 12 -2 41 54 36 67 63 133 55 133 -1 0 -7 -5 -14 -12z"/>
<path d="M1488 3483 c6 -2 18 -2 25 0 6 3 1 5 -13 5 -14 0 -19 -2 -12 -5z"/>
<path d="M4275 3391 c-16 -11 -38 -31 -48 -43 -26 -32 -88 -160 -81 -167 3 -3
31 -11 62 -17 65 -13 381 -162 412 -194 3 -3 32 -23 65 -45 55 -37 194 -143
240 -183 11 -10 40 -33 65 -52 25 -19 50 -39 56 -45 6 -5 28 -23 48 -40 21
-16 59 -50 84 -74 155 -145 208 -194 286 -264 49 -45 86 -87 86 -97 0 -11 6
-23 13 -27 49 -30 76 -130 34 -126 -16 1 -18 -4 -11 -40 6 -39 6 -41 -12 -27
-16 14 -17 13 -10 -5 11 -28 12 -34 2 -83 -5 -30 -4 -48 4 -55 8 -9 10 -8 5 6
-8 19 10 24 18 5 3 -7 6 10 7 37 2 41 3 45 10 25 6 -20 8 -16 9 23 1 59 21 54
22 -6 0 -23 5 -51 10 -62 7 -14 8 -2 5 43 -5 75 8 82 20 10 6 -38 10 36 12
252 2 223 -1 306 -9 309 -13 4 -134 116 -158 146 -30 37 -327 330 -391 386
-36 32 -104 91 -151 133 -48 42 -90 76 -93 76 -4 0 -21 13 -37 28 -26 24 -159
98 -224 124 -61 25 -129 41 -200 48 -44 4 -89 10 -100 14 -12 4 -31 -1 -50
-13z m1315 -1521 c0 -11 -4 -20 -9 -20 -5 0 -7 9 -4 20 3 11 7 20 9 20 2 0 4
-9 4 -20z"/>
<path d="M2345 3293 c6 -6 48 -41 95 -79 47 -37 88 -73 92 -78 5 -7 8 -7 8 -1
0 6 -39 41 -88 79 -94 75 -124 97 -107 79z"/>
<path d="M5000 3291 c0 -10 24 -21 43 -21 7 0 3 7 -7 15 -22 17 -36 19 -36 6z"/>
<path d="M5230 3236 c0 -2 7 -9 15 -16 13 -11 14 -10 9 4 -5 14 -24 23 -24 12z"/>
<path d="M5095 3220 c3 -5 8 -10 11 -10 2 0 4 5 4 10 0 6 -5 10 -11 10 -5 0
-7 -4 -4 -10z"/>
<path d="M1751 3216 c2 -2 21 -6 42 -10 27 -5 37 -4 32 3 -3 6 -22 11 -42 11
-20 0 -34 -2 -32 -4z"/>
<path d="M1860 3200 c8 -5 33 -12 55 -16 22 -3 46 -11 54 -18 8 -6 16 -10 18
-8 5 5 64 -8 95 -21 21 -9 27 -17 23 -32 -3 -11 -2 -14 1 -7 8 17 29 15 75 -9
23 -11 43 -19 45 -17 4 5 -150 83 -191 97 -46 15 -154 41 -173 41 -15 0 -15
-2 -2 -10z"/>
<path d="M5270 3200 c0 -5 10 -15 23 -21 22 -12 22 -12 3 10 -21 23 -26 26
-26 11z"/>
<path d="M878 3174 c-3 -3 -48 -9 -100 -14 -52 -5 -107 -16 -123 -24 -17 -9
-23 -16 -15 -16 41 0 330 45 330 52 0 9 -84 11 -92 2z"/>
<path d="M5325 3153 c12 -18 170 -172 173 -169 2 2 -36 41 -83 87 -84 82 -100
97 -90 82z"/>
<path d="M2590 3086 c19 -22 38 -42 43 -44 4 -2 6 -7 5 -10 -2 -4 28 -38 66
-77 64 -65 66 -66 25 -16 -24 30 -73 84 -109 121 -36 36 -49 48 -30 26z"/>
<path d="M5200 3122 c0 -10 374 -378 438 -430 33 -28 52 -38 52 -28 0 8 -4 16
-9 18 -21 8 -158 135 -307 285 -152 154 -174 174 -174 155z"/>
<path d="M110 3090 l-35 -7 43 -2 c23 0 42 4 42 9 0 6 -3 9 -7 9 -5 -1 -24 -5
-43 -9z"/>
<path d="M1315 3053 c-27 -7 -77 -15 -110 -17 -33 -2 -82 -9 -110 -15 -27 -6
-75 -17 -105 -23 -30 -6 -62 -15 -70 -19 -15 -7 -255 -50 -300 -53 -14 -1 -35
-7 -47 -14 -13 -7 -23 -8 -23 -3 0 5 -12 3 -27 -5 -16 -7 -38 -14 -50 -14 -12
0 -33 -5 -47 -11 -19 -9 -29 -9 -40 0 -9 8 -16 8 -20 2 -4 -5 -31 -13 -60 -16
-31 -4 -57 -13 -60 -21 -4 -10 -18 -12 -55 -7 -36 4 -55 1 -72 -11 -13 -9 -38
-16 -55 -16 -58 0 -64 -7 -64 -69 l0 -57 54 10 c50 10 85 26 58 26 -7 0 -12 5
-12 11 0 6 7 9 15 6 8 -4 17 -2 20 3 3 4 24 11 48 15 23 3 83 18 132 32 57 16
122 27 177 29 48 2 96 8 107 14 28 15 38 13 44 -9 3 -15 1 -18 -12 -14 -14 4
-14 3 -1 -6 17 -12 70 -15 70 -3 0 4 17 8 38 9 116 5 217 25 266 53 106 61
237 121 273 125 29 4 32 3 13 -3 -14 -4 -26 -15 -28 -24 -4 -21 37 -35 49 -17
6 10 43 13 156 11 81 -1 157 -2 168 -3 11 0 46 3 77 8 36 6 55 6 51 0 -3 -5 0
-7 8 -5 8 3 25 0 39 -7 14 -7 54 -17 90 -23 36 -6 79 -16 95 -23 33 -14 41
-16 71 -18 11 0 30 -10 42 -21 12 -11 28 -20 36 -20 8 0 18 -4 21 -10 3 -5 14
-10 23 -9 13 0 12 3 -4 11 -12 5 -27 20 -34 32 -6 12 -25 27 -42 34 -18 6 -29
15 -25 18 10 11 -25 33 -53 34 -20 0 -22 2 -10 10 11 7 7 10 -17 10 -18 0 -33
5 -33 10 0 6 5 10 12 10 6 0 8 3 5 6 -4 4 -13 1 -22 -6 -12 -10 -15 -10 -15 0
0 7 -7 10 -15 6 -8 -3 -19 2 -24 12 -7 12 -10 13 -11 3 0 -10 -3 -11 -13 -2
-8 6 -17 8 -20 4 -4 -3 -7 -2 -7 3 0 6 -16 8 -35 6 -21 -3 -35 0 -35 7 0 6 -9
11 -20 11 -11 0 -20 5 -20 10 0 6 -5 10 -11 10 -5 0 -7 -4 -4 -10 8 -12 -112
-2 -137 11 -25 14 -223 8 -283 -8z m512 -89 c-3 -3 -12 -4 -19 -1 -8 3 -5 6 6
6 11 1 17 -2 13 -5z m-862 -114 c-3 -5 -12 -7 -20 -3 -21 7 -19 13 6 13 11 0
18 -4 14 -10z m-215 -26 c0 -2 -12 -4 -26 -4 -14 0 -23 4 -20 9 6 8 46 4 46
-5z"/>
<path d="M2240 3061 c0 -5 7 -12 16 -15 14 -5 15 -4 4 9 -14 17 -20 19 -20 6z"/>
<path d="M2285 3030 c3 -5 8 -10 11 -10 2 0 4 5 4 10 0 6 -5 10 -11 10 -5 0
-7 -4 -4 -10z"/>
<path d="M2337 2999 c7 -7 15 -10 18 -7 3 3 -2 9 -12 12 -14 6 -15 5 -6 -5z"/>
<path d="M5515 2970 c19 -34 175 -168 175 -151 0 6 -3 11 -7 11 -8 0 -40 27
-127 109 -27 25 -45 39 -41 31z"/>
<path d="M3447 2866 c-4 -10 -5 -21 -2 -24 9 -9 17 6 13 25 -3 17 -4 17 -11
-1z"/>
<path d="M2540 2834 c0 -5 8 -17 18 -25 44 -40 110 -117 105 -123 -4 -3 2 -6
13 -7 11 0 14 -3 6 -6 -10 -4 -10 -8 -1 -19 6 -8 16 -11 22 -7 6 3 7 1 3 -6
-4 -6 8 -37 27 -69 55 -92 97 -176 97 -195 0 -10 6 -30 14 -45 18 -37 36 -145
36 -223 0 -45 3 -60 10 -49 8 12 10 10 10 -9 0 -34 6 -23 13 24 4 24 3 32 -2
20 -4 -11 -7 34 -5 103 1 67 -2 122 -6 122 -4 0 -11 7 -14 16 -3 8 -2 12 4 9
13 -8 13 -8 -13 55 -23 57 -84 171 -97 180 -3 3 -17 21 -31 41 -40 60 -209
232 -209 213z m210 -248 c0 -6 -7 -1 -15 10 -8 10 -15 23 -15 28 0 6 7 1 15
-10 8 -10 15 -23 15 -28z m35 -46 l20 -25 -22 19 c-13 11 -23 24 -23 29 0 6 1
8 3 6 1 -2 11 -15 22 -29z m29 -46 c3 -8 2 -12 -4 -9 -6 3 -10 10 -10 16 0 14
7 11 14 -7z m46 -75 c0 -6 -4 -7 -10 -4 -5 3 -10 11 -10 16 0 6 5 7 10 4 6 -3
10 -11 10 -16z m14 -35 c3 -8 2 -12 -4 -9 -6 3 -10 10 -10 16 0 14 7 11 14 -7z"/>
<path d="M3411 2813 c0 -10 4 -27 9 -38 7 -16 9 -13 9 18 1 20 -3 37 -9 37 -5
0 -10 -8 -9 -17z"/>
<path d="M598 2783 c7 -3 16 -2 19 1 4 3 -2 6 -13 5 -11 0 -14 -3 -6 -6z"/>
<path d="M2287 2784 c-7 -7 35 -74 47 -74 4 0 -3 15 -17 34 -15 18 -23 36 -20
40 4 3 4 6 1 6 -2 0 -7 -3 -11 -6z"/>
<path d="M2348 2713 c-4 -15 0 -23 14 -26 14 -4 16 -2 10 6 -5 7 -11 19 -14
27 -3 10 -6 8 -10 -7z"/>
<path d="M1930 2710 c0 -5 4 -10 9 -10 5 0 18 -3 28 -6 16 -5 16 -4 -1 10 -23
18 -36 20 -36 6z"/>
<path d="M1140 2694 c-41 -4 -156 -22 -385 -59 -44 -7 -120 -21 -170 -30 -49
-9 -117 -21 -150 -26 -33 -5 -80 -13 -105 -19 -25 -5 -88 -17 -140 -25 -52 -9
-116 -21 -142 -27 l-48 -10 0 -67 0 -68 45 -1 c25 0 47 4 51 9 3 5 25 9 50 9
24 0 44 4 44 9 0 8 65 13 175 12 131 -1 179 0 188 6 5 3 19 1 30 -5 41 -20 88
-31 102 -25 11 4 13 1 8 -13 -6 -17 -5 -18 12 -4 14 11 19 12 22 3 3 -7 14
-13 24 -13 13 0 18 -4 13 -12 -5 -8 -2 -9 9 -5 11 4 17 1 17 -9 0 -10 7 -13
24 -10 17 3 33 -4 51 -20 14 -13 33 -24 41 -24 8 0 14 -10 14 -25 0 -14 1 -28
1 -32 1 -5 -8 -13 -19 -19 -21 -10 -21 -11 -1 -24 23 -17 25 -50 3 -50 -11 0
-14 6 -9 20 3 11 2 20 -3 20 -13 0 -24 -29 -16 -42 4 -6 0 -14 -7 -19 -10 -6
-6 -9 13 -9 15 0 30 5 33 10 3 6 14 9 23 9 15 -1 15 -2 0 -6 -27 -7 -22 -22
10 -29 88 -20 178 -47 214 -65 27 -14 44 -11 24 4 -18 13 -18 14 -2 20 10 4
21 5 26 2 4 -3 20 1 35 9 18 10 36 11 55 6 20 -6 30 -5 33 3 2 8 10 6 21 -6
10 -9 22 -17 27 -17 5 0 9 -10 10 -22 0 -22 1 -22 9 -3 7 16 9 11 9 -21 1 -22
6 -45 13 -52 6 -6 8 -15 4 -19 -4 -4 -11 -1 -16 7 -5 8 -12 11 -16 7 -9 -9 25
-47 43 -47 8 0 19 14 24 30 12 33 40 40 65 16 8 -8 23 -13 34 -11 11 2 20 -1
20 -7 0 -5 11 -19 25 -30 14 -11 25 -26 25 -34 0 -8 7 -17 15 -20 8 -4 15 -17
15 -29 0 -13 5 -27 11 -31 6 -3 9 -15 6 -25 -3 -10 -1 -22 4 -25 5 -3 9 0 9 5
0 6 4 11 9 11 4 0 11 -18 14 -39 5 -41 52 -121 74 -129 9 -2 11 5 7 27 -7 34
-3 37 25 19 22 -13 51 3 51 28 0 13 9 17 45 17 40 0 42 -3 38 -42 -4 -34 -2
-40 17 -46 l22 -7 -26 -25 c-16 -15 -25 -31 -22 -40 3 -8 9 -32 12 -54 4 -22
11 -42 17 -46 6 -4 8 4 5 21 -3 14 -1 26 3 26 5 0 9 -4 9 -10 0 -5 6 -10 14
-10 21 0 73 -55 80 -85 5 -18 13 -25 31 -25 23 0 24 -2 13 -27 -19 -44 -27
-48 -37 -19 -6 14 -21 31 -33 36 -13 6 -36 19 -53 29 -16 11 -33 20 -37 20
-16 2 -7 -39 22 -98 142 -285 159 -642 38 -799 -23 -30 -53 -61 -66 -70 -12
-8 -28 -24 -34 -35 -10 -20 -10 -20 18 0 70 49 118 66 206 71 49 3 88 8 88 12
0 4 28 2 62 -5 71 -15 98 -7 98 28 0 28 17 47 42 47 10 0 18 5 18 10 0 22 58
70 84 70 14 0 26 4 26 9 0 5 2 15 5 23 7 19 -51 21 -79 2 -20 -12 -25 -13 -35
0 -14 17 2 32 21 20 8 -5 9 -2 5 9 -3 10 -2 17 3 17 4 0 21 10 37 23 24 20
106 57 126 57 9 0 9 -30 0 -31 -18 -2 -45 -8 -48 -11 -2 -2 -6 -15 -10 -30 -6
-23 -3 -27 27 -34 18 -4 45 -7 59 -6 29 2 45 -28 27 -46 -27 -27 23 -43 52
-17 24 22 140 24 140 3 0 -7 14 -20 31 -28 39 -19 34 -35 -11 -35 -19 0 -43
-7 -53 -16 -10 -9 -44 -19 -77 -22 -77 -8 -132 -35 -141 -67 -4 -14 -7 -18 -8
-9 -1 10 -13 19 -33 22 -18 4 -42 9 -53 12 -13 4 -30 -3 -49 -20 -16 -14 -35
-25 -43 -25 -29 0 -1 -19 50 -33 84 -24 155 -31 173 -16 8 7 31 12 51 11 20
-1 43 4 50 10 8 6 36 11 64 9 32 -1 49 2 49 10 0 26 57 -6 118 -67 35 -35 67
-64 72 -64 4 0 10 -6 13 -14 4 -9 28 -17 64 -22 67 -8 77 -16 86 -68 6 -36 5
-37 -12 -22 -18 16 -51 22 -51 9 0 -10 49 -33 68 -33 7 0 10 -5 7 -10 -8 -13
17 -9 26 4 4 5 19 6 33 2 30 -7 64 -61 43 -69 -6 -3 129 -6 301 -6 171 -1 312
1 312 3 0 2 -19 16 -42 32 -24 16 -48 34 -55 39 -7 6 -49 35 -93 65 -45 30
-128 89 -185 130 -57 41 -113 82 -125 90 -13 8 -28 21 -36 28 -7 6 -16 12 -20
12 -4 0 -43 24 -88 53 -44 30 -99 64 -121 77 -22 13 -42 27 -45 30 -3 3 -41
28 -85 54 -44 27 -87 55 -95 62 -8 7 -52 32 -98 57 -46 24 -83 48 -82 53 1 5
-15 13 -34 18 -20 5 -36 13 -36 18 0 4 -8 8 -18 8 -10 0 -24 6 -31 13 -10 10
-11 9 -6 -4 5 -14 0 -15 -42 -9 -26 4 -69 7 -95 6 -27 -1 -44 2 -39 7 5 5 0
18 -12 30 l-22 22 40 7 c22 3 58 3 80 -2 22 -5 57 -11 78 -14 21 -4 48 -11 60
-18 20 -10 21 -10 8 5 -7 10 -21 17 -30 17 -9 0 -28 6 -42 14 -15 7 -40 12
-55 9 -23 -4 -26 -2 -14 6 11 8 -4 11 -57 11 -67 0 -73 2 -73 21 0 19 4 20 76
16 56 -3 73 -2 64 7 -6 6 -41 11 -80 10 l-69 -1 -6 31 c-4 17 -9 39 -11 49 -4
11 0 17 13 17 16 1 16 2 2 10 -11 6 -17 24 -17 54 l-1 45 42 4 42 4 -47 1
c-34 1 -48 6 -48 16 0 8 -4 16 -9 18 -6 2 -12 37 -14 79 -4 74 -4 76 30 113
25 26 33 32 28 17 -8 -27 -1 -27 26 0 36 36 42 79 24 176 -38 205 -91 340
-204 521 -160 256 -439 453 -746 527 -70 16 -328 28 -425 19z m180 -159 c205
-26 249 -35 303 -59 29 -14 90 -36 137 -51 76 -25 136 -51 223 -98 46 -24 141
-111 250 -228 9 -11 15 -19 13 -19 -3 0 8 -13 22 -29 36 -39 52 -59 52 -66 0
-3 16 -30 35 -60 19 -30 31 -55 27 -55 -4 0 -2 -4 4 -8 10 -7 66 -115 66 -126
-1 -3 8 -36 19 -73 21 -74 25 -149 8 -173 -7 -11 -8 -5 -3 21 3 21 1 62 -6 92
-21 104 -180 385 -252 447 -23 19 -89 84 -147 143 -120 123 -164 148 -337 197
-58 16 -135 45 -172 65 -38 20 -81 35 -102 35 -19 1 -55 5 -80 10 -130 28
-212 40 -272 40 -37 0 -69 3 -71 8 -8 11 143 4 283 -13z m235 -275 c-3 -5 -14
-10 -23 -10 -15 0 -15 2 -2 10 20 13 33 13 25 0z m109 -107 c8 -20 -2 -31 -33
-36 -12 -2 -26 -8 -29 -14 -5 -7 -12 -2 -19 13 -10 21 -8 26 8 34 10 6 19 8
19 5 0 -3 8 -1 18 4 24 14 29 13 36 -6z m-688 -2 c12 10 13 9 8 -5 -7 -18 -26
-17 -30 2 -1 7 0 8 3 2 3 -8 9 -7 19 1z m76 -59 c-7 -2 -12 -8 -12 -13 0 -6 5
-7 10 -4 6 3 10 1 10 -4 0 -14 -1 -14 -41 4 -27 11 -30 14 -12 15 12 0 25 5
28 10 4 6 11 7 18 3 8 -5 8 -8 -1 -11z m679 -14 c0 -22 1 -22 8 -3 7 17 8 17
13 -8 3 -15 -1 -36 -9 -47 -14 -20 -16 -20 -33 -5 -14 13 -23 14 -37 6 -10 -6
-12 -11 -5 -11 17 0 15 -40 -2 -40 -7 0 -21 16 -31 36 l-17 37 28 22 c21 17
34 21 46 14 14 -7 18 -6 18 6 0 24 20 17 21 -7z m-621 2 c0 -5 -7 -7 -15 -4
-8 4 -15 8 -15 10 0 2 7 4 15 4 8 0 15 -4 15 -10z m-13 -26 c-3 -3 -12 -4 -19
-1 -8 3 -5 6 6 6 11 1 17 -2 13 -5z m703 -399 c0 -8 -2 -15 -4 -15 -2 0 -6 7
-10 15 -3 8 -1 15 4 15 6 0 10 -7 10 -15z m615 -474 c4 -11 3 -13 -5 -5 -6 6
-13 35 -15 65 l-4 54 9 -49 c5 -26 11 -55 15 -65z m380 -389 c-3 -3 -11 0 -18
7 -9 10 -8 11 6 5 10 -3 15 -9 12 -12z m51 -107 c8 -21 -13 -45 -40 -44 -11 0
-31 -2 -43 -6 -15 -5 -23 -3 -23 4 0 15 37 51 44 44 3 -4 6 -1 6 5 0 18 50 15
56 -3z m-576 -175 c0 -5 -7 -10 -15 -10 -8 0 -15 5 -15 10 0 6 7 10 15 10 8 0
15 -4 15 -10z"/>
<path d="M2390 2681 c0 -5 7 -11 15 -15 9 -3 12 -12 8 -23 -3 -10 -3 -15 1
-12 4 4 9 19 12 35 3 22 2 25 -6 14 -6 -10 -10 -11 -10 -2 0 6 -4 12 -10 12
-5 0 -10 -4 -10 -9z"/>
<path d="M25 2630 c4 -6 11 -8 16 -5 14 9 11 15 -7 15 -8 0 -12 -5 -9 -10z"/>
<path d="M2427 2626 c-4 -10 -1 -13 8 -9 8 3 12 9 9 14 -7 12 -11 11 -17 -5z"/>
<path d="M2444 2590 c1 -16 46 -24 46 -8 0 5 -9 7 -19 3 -12 -3 -21 -1 -24 7
-2 8 -4 7 -3 -2z"/>
<path d="M2531 2573 c7 -12 15 -20 18 -17 3 2 -3 12 -13 22 -17 16 -18 16 -5
-5z"/>
<path d="M128 2573 c7 -3 16 -2 19 1 4 3 -2 6 -13 5 -11 0 -14 -3 -6 -6z"/>
<path d="M2483 2548 c-3 -7 -1 -8 5 -4 7 4 12 1 12 -9 0 -9 -5 -13 -11 -9 -8
4 -8 1 -1 -12 5 -11 7 -25 4 -33 -3 -8 0 -11 6 -7 6 4 10 -1 10 -11 0 -10 3
-27 8 -38 7 -19 7 -19 -10 -2 -24 23 -28 21 -14 -8 6 -13 18 -26 27 -28 10 -3
7 -5 -7 -6 -13 0 -21 -5 -17 -10 3 -5 1 -12 -5 -16 -6 -4 -8 -10 -5 -14 6 -10
-34 -57 -46 -53 -13 3 -11 -26 3 -34 7 -5 8 -3 3 6 -5 9 -4 11 4 6 6 -4 9 -12
5 -17 -3 -5 13 -45 35 -89 79 -153 141 -388 141 -536 0 -159 -74 -320 -165
-354 -45 -17 -24 -21 63 -11 84 9 118 4 222 -30 105 -34 145 -50 221 -88 115
-58 116 -58 113 -14 -1 21 0 32 3 26 8 -22 25 -14 18 8 -6 18 -4 20 17 14 12
-4 31 -9 41 -12 9 -2 15 -8 12 -13 -3 -4 10 -19 28 -33 17 -13 47 -39 65 -56
17 -17 32 -28 32 -24 0 4 9 -3 20 -15 12 -12 32 -22 46 -22 14 0 23 -4 19 -9
-3 -6 4 -15 15 -21 11 -6 20 -9 21 -8 6 24 5 38 -2 38 -18 0 -8 17 17 29 30
13 48 5 21 -10 -18 -11 -24 -49 -7 -49 6 0 10 5 10 10 0 6 5 10 10 10 6 0 10
-9 10 -21 0 -14 -5 -19 -15 -16 -8 4 -17 2 -20 -4 -4 -5 1 -12 9 -15 9 -3 16
-13 16 -21 0 -8 4 -11 10 -8 13 8 80 -60 80 -82 0 -13 2 -15 8 -5 9 13 42 6
42 -9 0 -5 11 -14 25 -19 14 -5 25 -15 25 -22 0 -7 10 -18 23 -24 68 -32 168
-87 173 -95 3 -5 13 -9 22 -9 10 0 33 -13 52 -30 19 -16 41 -29 48 -30 6 0 12
-4 12 -10 0 -5 5 -10 10 -10 12 0 73 -41 78 -52 2 -5 9 -8 17 -8 7 0 18 -7 26
-16 7 -8 29 -24 48 -34 20 -10 46 -28 58 -39 12 -12 25 -21 29 -21 11 0 119
-89 157 -129 53 -57 83 -81 99 -81 10 0 18 -4 18 -10 0 -5 7 -10 15 -10 8 0
15 -7 15 -15 0 -9 18 -24 40 -34 22 -10 60 -37 84 -59 l45 -42 130 0 c72 0
131 2 131 4 0 3 -7 37 -15 76 -21 98 -32 300 -17 300 7 0 12 7 12 16 0 12 6
15 26 10 14 -4 31 -11 37 -16 7 -6 53 -40 102 -77 50 -36 92 -69 95 -72 3 -3
28 -22 55 -41 28 -19 55 -39 62 -45 22 -18 37 -30 120 -93 l82 -62 70 0 71 0
0 69 0 69 -122 108 c-68 60 -135 120 -149 134 -15 14 -48 44 -75 66 -27 23
-77 68 -112 100 -34 33 -84 77 -109 99 -26 22 -54 47 -63 55 -9 8 -45 37 -81
65 -35 27 -66 52 -69 55 -3 3 -18 14 -35 25 -44 28 -292 212 -349 259 -52 44
-211 183 -261 228 -16 15 -34 28 -39 28 -4 0 -6 6 -3 14 3 8 -4 22 -16 33
l-22 18 19 -22 c11 -13 15 -23 9 -23 -12 0 -65 55 -58 62 5 5 -51 54 -135 118
-26 20 -37 25 -26 12 11 -12 15 -22 9 -22 -15 0 -44 36 -36 44 4 4 0 4 -10 0
-10 -3 -17 -1 -17 5 0 6 -5 11 -11 11 -6 0 -79 41 -162 92 -84 51 -181 103
-217 116 -119 44 -243 30 -284 -33 -9 -14 -38 -48 -64 -75 -42 -44 -50 -49
-78 -42 -34 8 -90 49 -81 59 4 3 16 -2 27 -12 22 -20 28 -14 7 7 -7 7 -20 25
-30 41 -10 15 -25 27 -35 26 -13 0 -13 -2 4 -9 25 -10 38 -36 23 -46 -26 -16
-137 85 -160 145 -4 11 -8 6 -13 -14 -9 -36 -117 -224 -130 -225 -4 0 -5 10
-1 23 3 12 11 44 17 72 5 27 14 52 18 55 5 3 6 24 3 47 -4 34 -9 41 -24 38
-16 -3 -19 2 -19 41 0 24 -4 44 -9 44 -5 0 -12 12 -16 28 -7 25 -8 25 -15 7
-5 -11 -9 -14 -9 -7 -1 7 -5 10 -11 7 -5 -3 -10 -2 -10 4 0 5 9 13 20 16 23 7
27 33 5 41 -8 4 -15 14 -15 23 0 12 2 13 9 3 6 -11 10 -10 15 3 3 10 1 24 -5
31 -6 8 -9 21 -5 29 3 9 -3 20 -14 27 -23 15 -27 43 -6 35 24 -9 27 22 4 42
-11 11 -18 26 -15 34 3 9 -2 17 -14 20 -13 3 -19 14 -19 32 0 18 4 24 13 20 6
-4 1 3 -13 14 -14 11 -20 21 -15 21 6 0 2 5 -7 11 -10 5 -18 19 -18 30 0 11
-4 18 -9 14 -5 -3 -13 0 -17 6 -5 9 -11 7 -21 -6 -15 -21 -18 -12 -4 13 14 26
-1 85 -22 88 -9 1 -20 -3 -24 -8z m46 -60 c1 -5 -3 -8 -9 -8 -5 0 -10 12 -9
28 0 24 1 25 9 7 5 -11 9 -23 9 -27z m141 -609 c0 -19 -1 -19 -16 -5 -8 9 -12
20 -9 26 9 15 25 2 25 -21z m31 -16 c-12 -20 -14 -14 -5 12 4 9 9 14 11 11 3
-2 0 -13 -6 -23z m24 -163 c-3 -5 -11 -10 -16 -10 -6 0 -7 5 -4 10 3 6 11 10
16 10 6 0 7 -4 4 -10z m204 -25 c22 -8 41 -11 41 -8 0 4 5 2 12 -5 7 -7 19
-12 27 -12 8 0 52 -18 98 -41 57 -28 80 -45 76 -55 -3 -8 0 -14 6 -14 6 0 11
5 11 10 0 13 27 13 32 1 2 -5 21 -11 42 -13 22 -2 42 -10 44 -17 3 -8 0 -11
-6 -7 -5 3 -12 -1 -16 -9 -6 -17 9 -21 19 -5 9 14 35 12 69 -5 15 -8 32 -12
37 -9 5 3 9 1 9 -4 0 -5 25 -20 55 -33 30 -13 55 -29 55 -36 0 -7 8 -13 19
-13 21 0 45 -23 34 -33 -3 -4 1 -7 11 -7 9 0 19 -6 22 -14 3 -8 16 -12 32 -9
15 1 21 0 15 -3 -7 -3 -13 -12 -13 -20 0 -8 -4 -14 -10 -14 -5 0 -10 -4 -10
-10 0 -5 6 -10 14 -10 8 0 19 -13 24 -30 8 -22 15 -28 27 -24 12 5 13 9 5 14
-9 6 -9 9 0 15 7 4 15 2 19 -4 4 -6 15 -9 24 -5 16 6 18 4 21 -38 1 -7 -5 -12
-11 -11 -20 4 -15 -14 6 -29 14 -10 17 -18 10 -28 -7 -13 -9 -13 -9 1 0 11 -9
16 -30 16 -16 0 -30 -4 -30 -7 0 -4 -24 -11 -52 -14 -29 -4 -56 -13 -60 -19
-13 -20 -9 -37 7 -37 13 0 14 -4 3 -22 -10 -19 -13 -20 -16 -6 -2 12 -11 15
-33 11 -30 -4 -35 2 -20 26 6 9 11 10 15 2 11 -17 29 -13 22 6 -4 9 -1 20 6
25 8 5 1 8 -19 8 -18 0 -33 4 -33 10 0 5 7 7 15 4 8 -4 15 -1 15 5 0 6 -14 11
-31 11 -16 0 -28 -4 -25 -8 2 -4 -4 -18 -14 -31 l-17 -24 -19 29 c-23 36 -34
45 -56 41 -18 -2 -58 38 -58 60 0 7 -5 13 -11 13 -5 0 -7 -4 -4 -10 3 -5 -1
-10 -9 -10 -25 0 -18 19 9 26 14 3 25 10 25 16 0 5 4 7 8 4 5 -3 19 6 30 19
l21 24 -27 -3 c-15 -2 -21 -1 -14 1 22 8 13 20 -13 18 -14 -2 -23 1 -19 6 3 5
19 9 35 9 19 0 28 -4 23 -11 -4 -8 0 -8 15 0 23 13 26 28 11 51 -8 12 -10 12
-10 -5 -1 -20 -1 -20 -15 -1 -8 10 -12 23 -9 27 7 12 -17 11 -35 0 -8 -5 -12
-18 -9 -29 4 -16 2 -19 -10 -15 -8 4 -13 2 -10 -3 3 -5 0 -15 -8 -22 -8 -7
-14 -10 -14 -6 0 3 -6 1 -14 -5 -10 -8 -16 -9 -21 -1 -3 5 1 10 9 10 9 0 16 7
16 15 0 18 -17 20 -22 3 -3 -8 -9 -8 -24 0 -12 7 -14 11 -5 12 8 0 11 3 8 6
-4 4 -13 1 -21 -5 -12 -10 -20 -9 -40 4 -14 10 -33 15 -41 11 -8 -3 -15 -1
-15 4 0 6 -7 10 -15 10 -8 0 -15 4 -15 10 0 5 -6 7 -14 4 -8 -3 -21 4 -29 16
-8 12 -18 17 -21 12 -3 -6 0 -13 6 -16 7 -3 4 -4 -7 -3 -11 2 -19 9 -17 17 2
9 -1 11 -10 4 -18 -14 -37 -12 -48 6 -9 13 -10 13 -10 0 -1 -13 -2 -13 -13 0
-13 16 -31 23 -57 22 -15 0 -47 11 -83 29 -11 6 -25 5 -38 -2 -15 -8 -19 -8
-15 0 4 6 0 11 -9 11 -9 0 -13 5 -10 10 4 6 11 8 16 5 5 -4 9 -1 9 4 0 6 -9
11 -19 11 -17 0 -18 3 -8 30 6 17 15 30 19 30 4 0 8 5 8 11 0 24 84 89 116 89
12 0 40 -7 63 -15z m1121 -138 c14 -12 42 -35 63 -51 21 -16 35 -31 33 -34 -3
-3 -30 16 -60 42 -30 25 -59 46 -65 46 -6 0 -11 5 -11 10 0 16 13 12 40 -13z
m-175 -327 c3 -5 1 -10 -4 -10 -6 0 -11 5 -11 10 0 6 2 10 4 10 3 0 8 -4 11
-10z m-490 -60 c3 -5 -3 -11 -14 -11 -12 -1 -26 -2 -33 -3 -6 -1 -13 5 -15 12
-6 15 53 17 62 2z m370 -35 c0 -19 -4 -23 -15 -18 -8 3 -27 6 -42 5 -18 -1
-28 4 -28 13 0 12 19 18 70 24 10 0 15 -8 15 -24z m109 6 c4 -5 -3 -7 -14 -4
-11 3 -20 0 -20 -6 0 -6 -13 -11 -30 -11 -16 0 -30 4 -30 10 0 5 7 7 15 4 8
-4 15 -1 15 5 0 13 56 15 64 2z m-196 -22 c7 -11 8 -19 3 -19 -5 0 -11 6 -14
13 -3 9 -7 9 -19 -1 -12 -10 -17 -10 -27 1 -14 17 -7 25 23 25 12 0 28 -9 34
-19z m25 -52 c10 -10 15 -22 11 -25 -3 -4 -9 -1 -11 6 -3 6 -10 9 -15 6 -7 -5
-8 -2 -3 6 6 10 3 12 -13 8 -23 -6 -37 5 -27 22 7 12 33 2 58 -23z m277 17 c0
-8 -4 -12 -10 -9 -5 3 -10 10 -10 16 0 5 5 9 10 9 6 0 10 -7 10 -16z m-170
-33 c0 -12 -29 -23 -41 -15 -18 10 -9 24 16 24 14 0 25 -4 25 -9z m-180 -31
c0 -5 -2 -10 -4 -10 -3 0 -8 5 -11 10 -3 6 -1 10 4 10 6 0 11 -4 11 -10z"/>
<path d="M3227 1436 c-4 -10 -1 -13 9 -9 15 6 19 23 5 23 -5 0 -11 -7 -14 -14z"/>
<path d="M3427 1426 c-4 -10 -1 -13 9 -9 15 6 19 23 5 23 -5 0 -11 -7 -14 -14z"/>
<path d="M3180 1419 c0 -5 5 -7 10 -4 6 3 10 8 10 11 0 2 -4 4 -10 4 -5 0 -10
-5 -10 -11z"/>
<path d="M3435 1380 c3 -5 8 -10 11 -10 2 0 4 5 4 10 0 6 -5 10 -11 10 -5 0
-7 -4 -4 -10z"/>
<path d="M3615 1260 c-3 -5 -1 -10 4 -10 6 0 11 5 11 10 0 6 -2 10 -4 10 -3 0
-8 -4 -11 -10z"/>
<path d="M3385 1200 c-3 -6 1 -7 9 -4 18 7 21 14 7 14 -6 0 -13 -4 -16 -10z"/>
<path d="M3683 1202 c4 -5 0 -15 -8 -22 -18 -15 -20 -33 -2 -27 6 2 12 10 12
18 1 8 7 13 14 11 17 -3 9 20 -9 26 -7 3 -10 0 -7 -6z"/>
<path d="M3588 1193 c7 -3 16 -2 19 1 4 3 -2 6 -13 5 -11 0 -14 -3 -6 -6z"/>
<path d="M3720 1180 c0 -5 5 -10 10 -10 6 0 10 5 10 10 0 6 -4 10 -10 10 -5 0
-10 -4 -10 -10z"/>
<path d="M3625 1160 c3 -5 8 -10 11 -10 2 0 4 5 4 10 0 6 -5 10 -11 10 -5 0
-7 -4 -4 -10z"/>
<path d="M2540 2516 c0 -2 8 -10 18 -17 15 -13 16 -12 3 4 -13 16 -21 21 -21
13z"/>
<path d="M3498 2373 c7 -3 16 -2 19 1 4 3 -2 6 -13 5 -11 0 -14 -3 -6 -6z"/>
<path d="M2465 2360 c3 -5 8 -10 11 -10 2 0 4 5 4 10 0 6 -5 10 -11 10 -5 0
-7 -4 -4 -10z"/>
<path d="M11 2328 c11 -20 30 -20 36 -1 2 6 -7 13 -21 15 -22 4 -24 3 -15 -14z"/>
<path d="M2447 2334 c-4 -4 -7 -14 -7 -23 0 -11 3 -12 11 -4 6 6 10 16 7 23
-2 6 -7 8 -11 4z"/>
<path d="M4390 2243 c32 -22 133 -105 141 -117 4 -5 14 -6 24 -3 9 4 13 3 10
-3 -3 -5 2 -16 12 -24 62 -51 97 -76 102 -70 3 3 -2 10 -12 15 -9 6 -17 17
-17 24 0 8 -7 15 -15 15 -7 0 -18 6 -22 14 -11 20 -151 121 -212 153 -33 18
-40 16 -11 -4z"/>
<path d="M330 2160 c8 -5 31 -9 50 -9 l35 1 -30 8 c-16 4 -39 8 -50 9 -16 1
-17 -1 -5 -9z"/>
<path d="M38 2143 c-21 -2 -38 -9 -38 -15 0 -6 8 -7 18 -3 34 13 211 18 303 7
52 -6 123 -13 159 -16 l65 -5 -55 14 c-54 14 -55 14 -10 10 25 -3 63 -8 85
-11 32 -4 37 -3 22 6 -18 12 -469 22 -549 13z"/>
<path d="M13 2113 c-7 -2 -13 -12 -13 -21 0 -15 19 -17 183 -17 103 0 214 -6
257 -13 41 -7 102 -17 135 -22 66 -10 91 -15 150 -29 22 -6 63 -15 90 -21 122
-26 174 -40 235 -60 69 -23 124 -45 152 -60 10 -6 22 -10 26 -10 5 0 42 -18
82 -40 40 -22 75 -38 77 -36 8 8 -161 106 -184 106 -7 0 -13 5 -13 10 0 6 -7
10 -14 10 -8 0 -74 20 -147 45 -73 25 -142 45 -153 45 -18 0 -19 2 -6 11 12 9
10 10 -8 6 -12 -3 -56 5 -97 18 -41 13 -87 26 -102 28 -15 2 -35 7 -43 10 -8
3 -51 11 -95 18 -44 6 -102 15 -130 19 -27 5 -70 8 -95 8 l-45 -1 40 -7 c32
-6 23 -7 -40 -7 -56 -1 -71 2 -50 7 20 5 -6 8 -75 8 -58 0 -111 -2 -117 -5z"/>
<path d="M618 2113 c6 -2 18 -2 25 0 6 3 1 5 -13 5 -14 0 -19 -2 -12 -5z"/>
<path d="M551 2105 c5 -4 119 -29 194 -42 67 -12 13 7 -75 26 -93 21 -128 25
-119 16z"/>
<path d="M2716 2095 c4 -8 8 -15 10 -15 2 0 4 7 4 15 0 8 -4 15 -10 15 -5 0
-7 -7 -4 -15z"/>
<path d="M3528 2073 c6 -2 18 -2 25 0 6 3 1 5 -13 5 -14 0 -19 -2 -12 -5z"/>
<path d="M83 2063 l-83 -4 0 -55 0 -54 138 6 c133 6 244 -4 265 -25 16 -16 -3
-70 -26 -77 -12 -4 -54 -6 -93 -5 -40 1 -80 -2 -90 -8 -11 -5 -31 -12 -46 -16
-16 -3 -28 -12 -28 -20 0 -19 -19 -19 -26 0 -7 17 -34 21 -34 5 0 -5 -13 -10
-30 -10 -25 0 -30 -4 -30 -24 0 -18 7 -25 31 -30 18 -3 38 -1 45 5 9 7 20 6
38 -6 26 -17 38 -20 146 -30 113 -11 143 -15 220 -29 153 -29 305 -67 308 -76
2 -6 16 -10 30 -10 53 0 98 -20 130 -57 88 -101 125 -151 138 -180 8 -17 18
-34 24 -38 5 -3 10 -15 10 -26 0 -10 7 -19 15 -19 8 0 15 -3 16 -7 4 -44 13
-77 44 -157 26 -66 37 -112 39 -162 2 -38 7 -77 11 -88 5 -12 3 -21 -6 -27
-12 -8 -12 -10 0 -18 7 -5 9 -10 3 -12 -8 -3 46 -129 108 -249 34 -66 118
-305 151 -427 l32 -123 591 0 c332 0 586 4 581 9 -13 11 -134 77 -205 111 -53
26 -156 66 -231 89 -43 13 -129 14 -161 2 -84 -32 -114 -47 -121 -58 -12 -20
-25 -7 -36 35 -10 34 -8 38 19 63 16 15 39 30 50 34 11 4 17 11 14 17 -5 7 0
9 14 6 12 -4 22 -2 22 3 0 4 8 6 18 3 15 -5 15 -4 1 5 -15 10 -85 -4 -99 -19
-15 -16 -70 -49 -70 -43 0 12 31 37 81 64 24 13 47 28 50 33 4 4 8 4 10 0 2
-5 46 -8 98 -6 117 4 104 22 -16 22 -89 0 -171 -23 -211 -60 -12 -11 -23 -20
-26 -20 -5 0 -15 48 -19 90 -1 8 -9 20 -17 26 -12 10 -10 17 11 45 41 54 44
66 11 35 -18 -16 -35 -27 -38 -23 -3 3 7 17 22 32 22 19 24 23 9 18 -20 -6
-20 -6 -1 15 10 12 23 19 29 15 6 -3 7 -1 3 5 -4 7 -1 12 7 12 7 0 14 7 14 14
0 18 -20 9 -55 -24 -16 -15 -21 -28 -16 -42 4 -14 3 -18 -5 -13 -7 4 -18 1
-26 -5 -18 -15 -19 -3 -2 28 16 28 96 112 108 112 44 0 18 231 -48 413 -46
128 -140 281 -238 386 -57 60 -183 163 -233 190 -12 7 -20 17 -16 23 5 7 2 8
-5 3 -14 -8 -111 33 -111 47 0 4 -5 8 -10 8 -6 0 -45 20 -88 45 -88 52 -86 60
3 13 33 -17 74 -38 90 -46 17 -8 38 -22 48 -30 9 -8 17 -12 17 -7 0 11 -29 33
-76 56 -60 29 -106 73 -98 93 3 9 1 16 -6 16 -6 0 -9 -4 -6 -9 8 -12 -26 -24
-33 -13 -3 5 -19 17 -36 26 -16 10 -21 14 -10 10 25 -8 75 -16 55 -8 -8 3 -29
12 -47 20 -38 17 -57 18 -47 2 4 -7 3 -8 -5 -4 -6 4 -9 11 -6 16 3 5 -7 12
-22 15 -15 4 -46 12 -68 20 -114 39 -386 99 -540 119 -89 12 -221 26 -230 24
-5 -1 -47 -4 -92 -5z m95 -20 c-16 -2 -40 -2 -55 0 -16 2 -3 4 27 4 30 0 43
-2 28 -4z m70 -20 c-10 -2 -28 -2 -40 0 -13 2 -5 4 17 4 22 1 32 -1 23 -4z
m137 -13 c13 -6 5 -7 -25 -3 -25 3 -47 7 -49 9 -9 8 55 2 74 -6z m-152 -27
c-7 -2 -21 -2 -30 0 -10 3 -4 5 12 5 17 0 24 -2 18 -5z m654 -59 c-3 -3 -12
-4 -19 -1 -8 3 -5 6 6 6 11 1 17 -2 13 -5z"/>
<path d="M795 2050 c11 -5 27 -9 35 -9 13 -1 13 0 0 9 -8 5 -24 9 -35 9 l-20
0 20 -9z"/>
<path d="M2888 1991 c-12 -52 -10 -64 17 -96 18 -21 23 -24 18 -10 -3 11 -10
25 -14 30 -4 6 -9 33 -11 60 -3 48 -3 49 -10 16z"/>
<path d="M4715 1990 c10 -11 20 -20 23 -20 3 0 -3 9 -13 20 -10 11 -20 20 -23
20 -3 0 3 -9 13 -20z"/>
<path d="M3247 1989 c-9 -5 -22 -7 -29 -3 -7 4 -8 3 -4 -4 7 -11 -6 -17 -27
-13 -5 1 -6 -3 -2 -9 3 -5 1 -10 -4 -10 -15 0 -91 -75 -91 -89 0 -6 18 9 41
34 23 24 68 58 102 75 33 16 54 30 46 30 -8 0 -22 -5 -32 -11z"/>
<path d="M4779 1934 c29 -24 51 -31 51 -15 0 14 -30 34 -56 37 -24 3 -24 3 5
-22z m32 -1 c13 -16 12 -17 -3 -4 -17 13 -22 21 -14 21 2 0 10 -8 17 -17z"/>
<path d="M2750 1909 c0 -5 5 -7 10 -4 6 3 10 8 10 11 0 2 -4 4 -10 4 -5 0 -10
-5 -10 -11z"/>
<path d="M3046 1863 c-6 -14 -5 -15 5 -6 7 7 10 15 7 18 -3 3 -9 -2 -12 -12z"/>
<path d="M3229 1811 c-50 -44 -88 -101 -67 -101 18 1 89 73 92 94 1 10 9 21
16 26 8 5 12 11 9 15 -3 3 -26 -12 -50 -34z m21 -4 c0 -2 -15 -16 -32 -33
l-33 -29 29 33 c28 30 36 37 36 29z"/>
<path d="M0 1523 c0 -20 12 -23 165 -47 45 -7 157 -33 180 -41 45 -16 234
-111 293 -147 34 -21 65 -38 69 -38 22 0 -74 67 -146 102 -47 23 -93 45 -101
50 -8 4 -22 11 -30 14 -8 3 -46 19 -85 34 -84 34 -190 68 -236 74 -19 3 -51 8
-71 12 -33 6 -38 4 -38 -13z"/>
<path d="M5076 1526 c3 -8 13 -17 22 -21 13 -5 13 -2 -3 15 -21 24 -26 25 -19
6z"/>
<path d="M5230 1506 c0 -2 8 -10 18 -17 15 -13 16 -12 3 4 -13 16 -21 21 -21
13z"/>
<path d="M5570 1456 c0 -2 8 -10 18 -17 15 -13 16 -12 3 4 -13 16 -21 21 -21
13z"/>
<path d="M0 1441 c0 -13 27 -21 68 -20 l37 0 -45 15 c-53 16 -60 17 -60 5z"/>
<path d="M0 1331 c0 -5 21 -12 48 -16 26 -3 75 -13 110 -22 39 -10 67 -12 73
-6 5 5 -20 14 -66 22 -41 8 -75 17 -75 20 0 4 -20 8 -45 10 -25 1 -45 -3 -45
-8z"/>
<path d="M1 1255 c5 -21 54 -53 84 -54 11 -1 30 -8 42 -16 13 -9 24 -11 28 -6
3 5 1 12 -5 16 -18 11 -11 25 13 25 37 1 -1 16 -68 28 -33 6 -68 14 -79 18
-14 5 -17 3 -15 -11z"/>
<path d="M729 1226 c6 -8 21 -16 33 -19 l20 -6 -20 20 c-25 23 -51 27 -33 5z"/>
<path d="M201 1204 c9 -8 32 -16 53 -17 20 -1 34 -7 32 -12 -2 -6 13 -11 33
-11 24 -1 62 -17 116 -50 44 -26 85 -53 91 -59 6 -5 49 -45 96 -88 77 -70 120
-128 105 -143 -3 -3 -25 -8 -49 -11 -24 -2 -52 -8 -63 -13 -11 -5 -26 -10 -33
-12 -13 -3 14 -42 65 -95 21 -22 64 -30 126 -24 9 1 17 -3 17 -9 0 -6 4 -9 9
-6 4 3 17 -4 27 -15 11 -12 29 -25 42 -30 16 -6 22 -17 22 -38 0 -26 21 -47
43 -43 4 1 7 -5 7 -13 0 -8 5 -15 10 -15 6 0 10 -12 10 -26 0 -18 -4 -23 -12
-17 -7 4 -30 9 -50 10 -56 4 -48 -20 13 -39 41 -12 52 -13 56 -2 3 9 11 6 28
-11 12 -14 30 -25 39 -25 9 0 19 -7 22 -15 4 -8 19 -15 35 -15 26 0 30 -5 49
-72 29 -94 35 -138 22 -138 -18 0 -30 33 -25 68 4 25 1 37 -13 47 -17 12 -20
11 -26 -8 -5 -20 -6 -19 -7 6 -1 15 -5 27 -9 27 -5 0 -14 10 -20 23 -11 19
-11 18 -6 -13 4 -19 19 -80 34 -135 16 -55 31 -112 34 -127 6 -26 10 -28 51
-28 42 0 45 2 40 22 -3 13 -14 67 -25 121 -12 53 -30 123 -41 154 -24 70 -24
84 1 55 23 -27 60 -123 66 -171 2 -19 11 -63 19 -98 8 -36 13 -69 9 -74 -3 -5
13 -9 35 -9 23 0 41 4 41 8 0 27 -142 389 -178 452 -47 84 -169 246 -242 319
-164 167 -308 286 -385 320 -11 5 -49 23 -84 39 -35 17 -66 31 -70 30 -3 0 -8
1 -11 2 -3 1 -12 3 -20 5 -8 2 -35 10 -59 19 -24 9 -53 16 -64 16 -19 0 -20
-1 -6 -16z m822 -724 c3 -11 2 -20 -3 -20 -4 0 -10 9 -13 20 -3 11 -2 20 3 20
4 0 10 -9 13 -20z m176 -439 c2 -44 -17 -9 -23 44 l-6 50 14 -35 c8 -19 15
-46 15 -59z"/>
<path d="M5640 1213 c1 -12 50 -46 50 -35 0 6 -11 17 -25 26 -14 9 -25 13 -25
9z"/>
<path d="M0 1113 l0 -92 35 -7 c40 -7 45 -25 13 -48 -22 -15 -21 -15 32 -10
30 3 71 10 91 16 26 7 42 7 58 -1 23 -13 26 -6 12 32 -20 51 -135 148 -195
163 -15 3 -31 14 -36 23 -6 11 -9 -13 -10 -76z"/>
<path d="M1866 1165 c4 -8 11 -15 16 -15 6 0 5 6 -2 15 -7 8 -14 15 -16 15 -2
0 -1 -7 2 -15z"/>
<path d="M315 1150 c3 -5 8 -10 11 -10 2 0 4 5 4 10 0 6 -5 10 -11 10 -5 0 -7
-4 -4 -10z"/>
<path d="M1887 1120 c3 -11 9 -20 15 -20 5 0 4 9 -2 20 -6 11 -12 20 -14 20
-2 0 -2 -9 1 -20z"/>
<path d="M310 970 c0 -11 -5 -20 -11 -20 -6 0 -9 -5 -7 -11 2 -6 6 -9 9 -7 3
2 13 -3 22 -10 9 -8 20 -11 25 -8 5 3 26 -5 46 -19 43 -29 46 -30 46 -10 0 8
-3 15 -8 15 -4 0 -30 20 -59 45 -28 25 -54 45 -57 45 -3 0 -6 -9 -6 -20z"/>
<path d="M5524 965 c15 -14 24 -25 20 -25 -9 0 51 -55 111 -103 l40 -32 -18
28 c-19 29 -99 110 -138 140 -35 26 -46 21 -15 -8z"/>
<path d="M2696 945 c10 -8 28 -14 39 -14 18 0 17 1 -5 14 -34 20 -60 20 -34 0z"/>
<path d="M1952 930 c0 -14 2 -19 5 -12 2 6 2 18 0 25 -3 6 -5 1 -5 -13z"/>
<path d="M2770 945 c0 -2 46 -27 103 -56 56 -28 104 -54 107 -58 3 -3 19 -12
35 -19 l30 -13 -25 20 c-24 19 -232 131 -244 131 -3 0 -6 -2 -6 -5z"/>
<path d="M220 884 c0 -8 5 -12 10 -9 6 4 8 11 5 16 -9 14 -15 11 -15 -7z"/>
<path d="M1962 880 c0 -14 2 -19 5 -12 2 6 2 18 0 25 -3 6 -5 1 -5 -13z"/>
<path d="M2770 880 c0 -14 31 -28 51 -23 11 3 19 0 19 -6 0 -6 6 -11 14 -11 8
0 16 -5 18 -10 2 -6 13 -12 26 -13 12 0 22 -6 22 -12 0 -14 68 -47 81 -39 14
8 -1 26 -17 20 -7 -3 -17 0 -21 7 -9 14 -37 32 -70 47 -13 5 -42 19 -65 30
-47 22 -58 24 -58 10z"/>
<path d="M1972 815 c0 -16 2 -22 5 -12 2 9 2 23 0 30 -3 6 -5 -1 -5 -18z"/>
<path d="M3061 787 c2 -1 14 -11 27 -21 12 -11 22 -16 22 -13 0 10 -31 37 -42
37 -6 0 -9 -1 -7 -3z"/>
<path d="M1980 735 c0 -46 15 -46 16 0 0 19 -3 35 -8 35 -4 0 -8 -16 -8 -35z"/>
<path d="M3006 761 c-7 -11 31 -40 87 -66 21 -10 52 -31 69 -47 17 -16 44 -32
60 -35 15 -3 25 -10 21 -16 -3 -6 -1 -7 5 -3 7 4 23 -4 37 -18 14 -14 40 -33
58 -42 18 -9 34 -20 37 -24 8 -11 70 -39 70 -32 0 4 -27 23 -60 42 -33 19 -60
38 -60 41 0 13 -135 94 -150 91 -8 -2 -12 -1 -8 3 4 5 -25 30 -65 58 -83 57
-93 62 -101 48z"/>
<path d="M3130 740 c35 -24 54 -31 30 -11 -14 11 -29 21 -35 21 -5 0 -3 -5 5
-10z"/>
<path d="M3210 686 c0 -2 7 -7 16 -10 8 -3 12 -2 9 4 -6 10 -25 14 -25 6z"/>
<path d="M0 599 c0 -45 5 -75 13 -82 21 -20 95 -57 111 -57 9 0 16 -4 16 -10
0 -5 6 -10 13 -10 11 0 32 -16 103 -77 73 -62 224 -291 224 -338 0 -12 19 -15
115 -15 81 0 115 3 115 12 0 6 -3 8 -7 5 -10 -11 -33 13 -33 34 0 11 -5 18
-11 16 -6 -1 -16 15 -23 35 -6 21 -18 46 -26 55 -9 10 -31 40 -50 68 -46 65
-189 210 -265 266 -84 63 -262 169 -284 169 -7 0 -11 -28 -11 -71z"/>
<path d="M850 546 c0 -9 7 -16 16 -16 17 0 14 22 -4 28 -7 2 -12 -3 -12 -12z"/>
<path d="M3427 539 c7 -7 15 -10 18 -7 3 3 -2 9 -12 12 -14 6 -15 5 -6 -5z"/>
<path d="M3485 495 c17 -13 34 -24 38 -25 5 0 -5 11 -21 25 -17 14 -34 25 -38
25 -5 0 5 -11 21 -25z"/>
<path d="M3460 461 c0 -10 30 -24 37 -17 3 2 -5 9 -16 16 -12 6 -21 7 -21 1z"/>
<path d="M3550 456 c0 -2 7 -9 15 -16 9 -7 15 -8 15 -2 0 5 -7 12 -15 16 -8 3
-15 4 -15 2z"/>
<path d="M3614 405 c16 -14 34 -25 40 -25 13 1 -45 50 -59 50 -5 0 3 -11 19
-25z"/>
<path d="M3554 394 c15 -14 31 -23 34 -20 6 7 -39 45 -53 45 -5 0 3 -11 19
-25z"/>
<path d="M2265 370 c3 -5 11 -10 16 -10 6 0 7 5 4 10 -3 6 -11 10 -16 10 -6 0
-7 -4 -4 -10z"/>
<path d="M3620 345 c14 -8 32 -18 40 -22 8 -4 21 -13 29 -20 7 -8 16 -11 19
-8 3 3 3 6 1 8 -2 2 -21 15 -41 30 -20 15 -45 27 -55 27 -14 0 -13 -3 7 -15z"/>
<path d="M3735 326 c47 -41 105 -79 110 -74 3 3 -21 23 -52 45 -73 50 -97 62
-58 29z"/>
<path d="M3737 269 c7 -7 15 -10 18 -7 3 3 -2 9 -12 12 -14 6 -15 5 -6 -5z"/>
<path d="M2355 250 c11 -5 29 -9 40 -9 l20 0 -20 9 c-11 5 -29 9 -40 9 l-20 0
20 -9z"/>
<path d="M2620 245 c27 -14 36 -13 25 4 -3 6 -16 11 -28 11 -21 -1 -21 -1 3
-15z"/>
<path d="M3792 234 c15 -15 30 -26 33 -23 2 3 -10 16 -28 29 l-32 23 27 -29z"/>
<path d="M2445 220 c11 -5 27 -9 35 -9 13 -1 13 0 0 9 -8 5 -24 9 -35 9 l-20
0 20 -9z"/>
<path d="M2670 223 c8 -3 20 -11 25 -17 14 -16 144 -106 154 -106 4 0 26 -13
47 -28 21 -16 47 -31 57 -35 10 -4 15 -11 12 -17 -4 -6 6 -10 24 -10 17 0 31
2 31 4 0 17 -329 217 -354 215 -6 0 -4 -3 4 -6z"/>
<path d="M2568 168 c5 -5 16 -8 23 -6 8 3 3 7 -10 11 -17 4 -21 3 -13 -5z"/>
<path d="M3996 86 c4 -12 45 -36 60 -36 3 0 -8 11 -24 25 -34 28 -44 31 -36
11z"/>
<path d="M970 32 c0 -14 6 -22 16 -22 14 0 15 3 3 18 -7 9 -15 19 -16 21 -2 2
-3 -5 -3 -17z"/>
<path d="M4090 20 c0 -5 7 -10 16 -10 8 0 12 5 9 10 -3 6 -10 10 -16 10 -5 0
-9 -4 -9 -10z"/>
</g>
</svg>
