<?xml version="1.0" standalone="no"?>
<!DOCTYPE svg PUBLIC "-//W3C//DTD SVG 20010904//EN"
 "http://www.w3.org/TR/2001/REC-SVG-20010904/DTD/svg10.dtd">
<svg version="1.0" xmlns="http://www.w3.org/2000/svg"
 width="570.000000pt" height="570.000000pt" viewBox="0 0 570.000000 570.000000"
 preserveAspectRatio="xMidYMid meet">

<g transform="translate(0.000000,570.000000) scale(0.100000,-0.100000)"
fill="#000000" stroke="none">
<path d="M0 4988 l0 -712 33 31 c56 53 68 56 141 32 97 -32 104 -43 112 -176
4 -61 3 -119 -1 -130 -4 -10 -7 -32 -6 -50 1 -17 -2 -40 -7 -50 -15 -29 -3
-43 38 -43 51 0 70 -8 70 -31 0 -10 3 -19 8 -19 9 0 8 -232 -2 -248 -11 -18
-9 -313 3 -351 8 -25 8 -46 0 -74 -9 -35 -8 -44 11 -69 22 -30 24 -75 2 -71
-6 2 -14 -9 -18 -25 -13 -58 -15 -62 -41 -62 -15 0 -24 -2 -21 -5 3 -3 31 -3
62 1 38 5 56 11 56 21 0 12 26 13 153 10 83 -2 183 -10 222 -16 95 -17 612 -6
705 14 17 4 21 3 12 -3 -21 -14 32 -24 84 -16 32 4 44 3 44 -6 0 -17 53 -6 79
17 15 13 17 19 8 25 -13 8 2 10 124 13 42 1 81 5 87 9 6 4 34 7 62 9 l50 1 -1
51 c-1 29 -4 38 -6 22 -2 -15 -9 -25 -14 -22 -5 4 -9 1 -9 -5 0 -6 -6 -10 -12
-9 -7 1 -21 -1 -31 -6 -10 -4 -21 -4 -25 0 -4 3 -9 87 -10 186 l-4 179 -76 -2
-77 -2 75 -6 c41 -4 73 -8 70 -9 -7 -3 -239 -4 -270 0 -14 1 9 5 50 9 l75 6
-72 2 c-42 1 -73 6 -73 12 0 7 52 10 150 8 l150 -3 0 91 c0 50 3 113 7 139 5
38 3 47 -8 43 -9 -3 -13 -17 -11 -41 6 -71 1 -75 -91 -72 -45 2 -91 6 -102 10
-16 6 -17 5 -5 -4 13 -9 13 -11 -1 -11 -8 0 -25 9 -37 20 -54 50 -61 17 -61
-296 l-1 -241 -57 -1 c-32 -1 -90 -5 -130 -8 -100 -9 -106 -1 -114 130 -7 110
-2 445 7 489 3 16 1 27 -5 27 -6 0 -11 -17 -11 -37 0 -21 -4 -45 -10 -53 -7
-12 -11 -12 -28 3 -19 17 -20 17 -25 -2 -4 -16 -12 -20 -36 -18 -17 1 -31 8
-31 15 0 9 -5 10 -19 2 -38 -20 -44 -13 -38 43 4 34 3 45 -3 30 -14 -34 -22
-169 -24 -400 -1 -134 -6 -217 -13 -224 -5 -5 -34 -9 -64 -7 l-54 3 -15 45
c-8 25 -21 56 -28 69 -8 12 -12 32 -9 42 3 10 1 19 -4 19 -16 0 -10 -80 6 -86
8 -4 12 -11 9 -16 -4 -6 -10 -5 -15 3 -7 12 -9 11 -9 -1 -1 -9 -5 -7 -10 7 -5
11 -12 76 -16 142 -4 67 -10 121 -13 121 -4 0 -12 -5 -17 -10 -18 -18 -33 11
-23 39 7 19 12 22 21 13 22 -22 26 -13 33 67 7 81 -3 130 -16 81 l-7 -25 -1
24 c-1 20 -3 22 -17 10 -13 -10 -17 -10 -25 2 -8 12 -11 11 -20 -3 -16 -28
-39 -22 -39 10 0 42 15 60 39 45 25 -16 61 -5 61 18 0 11 -6 19 -12 20 -7 0
-2 5 12 11 31 12 422 18 544 7 71 -6 92 -5 103 7 17 16 9 34 -15 35 -11 0 -12
3 -4 6 21 8 13 21 -10 15 -14 -3 -19 -1 -14 6 3 6 -3 16 -14 22 -15 8 -21 20
-20 38 3 42 1 43 -20 22 -13 -13 -26 -17 -37 -12 -16 6 -15 7 5 10 12 2 22 8
22 14 0 5 -8 7 -17 4 -20 -8 -32 9 -26 35 4 14 11 17 29 13 25 -6 34 10 12 19
-10 4 -10 6 0 6 7 1 20 8 28 16 9 8 27 15 42 16 15 1 45 3 67 5 43 3 232 12
302 13 23 1 48 7 55 14 7 8 43 17 78 21 72 7 87 10 113 19 40 16 47 16 47 2 0
-8 5 -15 10 -15 6 0 10 5 10 10 0 15 44 12 76 -5 40 -20 63 -19 83 6 14 18 16
36 12 113 -3 50 -5 143 -6 206 0 103 3 120 24 163 14 26 28 47 33 47 4 0 8 6
8 14 0 8 7 16 15 20 8 3 15 12 15 21 0 8 3 15 8 15 4 0 8 30 9 67 2 47 7 71
18 79 8 6 15 16 15 21 0 6 10 13 21 16 15 4 20 11 16 21 -5 11 0 16 13 16 11
0 20 7 20 16 0 8 4 13 9 10 5 -3 16 5 25 19 11 16 26 25 44 25 15 0 44 3 65 6
35 6 37 8 37 46 0 40 22 78 83 145 29 31 29 32 13 65 -10 18 -20 55 -23 81 -5
44 -3 51 23 75 17 15 31 30 31 35 12 52 13 85 5 138 -7 49 -6 75 4 109 8 25
14 48 14 53 0 4 -648 7 -1440 7 l-1440 0 0 -712z m2515 522 c57 0 168 -156
136 -193 -7 -9 -9 -26 -5 -43 5 -19 4 -25 -5 -20 -6 4 -11 1 -11 -7 0 -7 -13
-23 -30 -35 -16 -13 -30 -29 -30 -37 0 -39 -139 -66 -216 -44 -24 8 -44 17
-44 21 0 3 -11 5 -25 2 -20 -4 -25 0 -25 17 0 14 -5 19 -14 16 -8 -3 -17 1
-20 9 -3 8 -13 14 -21 14 -10 0 -15 7 -13 18 1 9 -1 23 -6 31 -15 23 -18 99
-5 124 6 12 35 45 63 73 58 59 111 79 188 72 31 -3 48 -1 49 6 1 6 3 3 6 -6 3
-11 14 -18 28 -18z m-975 -300 c0 -5 9 -10 20 -10 11 0 24 -8 27 -17 4 -10 15
-24 25 -32 17 -12 18 -15 4 -30 -8 -9 -17 -28 -21 -43 -4 -15 -16 -30 -28 -34
-12 -4 -25 -12 -29 -18 -10 -15 -110 -14 -115 2 -3 6 -11 12 -18 12 -17 0 -45
39 -45 62 0 10 7 18 15 18 8 0 15 7 15 15 0 8 5 15 11 15 5 0 9 10 7 22 -2 18
4 25 32 35 43 15 100 16 100 3z m542 -243 c4 -7 8 -9 8 -5 0 10 81 -21 99 -38
17 -16 28 -264 11 -264 -19 0 9 -40 34 -50 28 -10 46 -57 46 -119 0 -50 -12
-77 -28 -67 -6 4 -21 -5 -34 -19 -21 -22 -29 -24 -71 -19 -48 7 -61 19 -29 27
13 4 11 5 -6 6 -23 1 -81 57 -82 79 0 7 -12 18 -26 24 -19 9 -24 18 -21 35 2
12 -1 24 -7 27 -6 2 3 16 19 30 17 14 24 25 17 26 -10 0 -13 21 -10 90 3 91
-8 126 -15 48 -3 -37 -4 -35 -5 15 -1 31 -7 65 -13 75 -9 14 -8 25 4 48 9 16
16 24 17 17 0 -7 12 0 26 14 20 20 23 28 12 35 -9 6 -3 7 17 3 16 -4 33 -12
37 -18z m-947 -1119 c30 -13 33 -38 5 -38 -13 0 -20 -7 -20 -20 0 -11 -3 -20
-7 -20 -5 0 -8 20 -8 45 0 25 1 45 2 45 1 0 14 -5 28 -12z m305 -27 c0 -5 -9
-7 -20 -4 -11 3 -20 7 -20 9 0 2 9 4 20 4 11 0 20 -4 20 -9z m-175 -31 c-6 -9
-9 -9 -16 1 -10 17 0 34 13 21 6 -6 7 -16 3 -22z m-430 -100 c-3 -5 -13 -10
-21 -10 -8 0 -14 5 -14 10 0 6 9 10 21 10 11 0 17 -4 14 -10z m360 -260 c0
-22 -4 -40 -8 -40 -43 0 -42 0 -27 10 13 9 13 10 0 10 -13 0 -13 1 0 10 13 9
13 11 0 20 -13 8 -12 10 3 10 10 0 15 5 12 10 -3 6 0 10 7 10 9 0 13 -13 13
-40z m-385 -14 c0 -42 -27 -57 -36 -21 -8 32 1 55 21 55 10 0 15 -10 15 -34z
m435 24 c3 -5 2 -10 -4 -10 -5 0 -13 5 -16 10 -3 6 -2 10 4 10 5 0 13 -4 16
-10z m85 0 c0 -5 -5 -10 -11 -10 -5 0 -7 5 -4 10 3 6 8 10 11 10 2 0 4 -4 4
-10z m448 3 c-21 -2 -55 -2 -75 0 -21 2 -4 4 37 4 41 0 58 -2 38 -4z m145 0
c-18 -2 -48 -2 -65 0 -18 2 -4 4 32 4 36 0 50 -2 33 -4z m-666 -29 c-3 -3 -12
-4 -19 -1 -8 3 -5 6 6 6 11 1 17 -2 13 -5z m531 -51 c-21 -2 -57 -2 -80 0 -24
2 -7 4 37 4 44 0 63 -2 43 -4z m105 0 c-7 -2 -21 -2 -30 0 -10 3 -4 5 12 5 17
0 24 -2 18 -5z m-978 -343 c3 -5 -1 -10 -9 -10 -9 0 -16 5 -16 10 0 6 4 10 9
10 6 0 13 -4 16 -10z m460 -10 c3 -5 1 -10 -4 -10 -6 0 -11 5 -11 10 0 6 2 10
4 10 3 0 8 -4 11 -10z"/>
<path d="M3151 5690 c9 -5 29 -38 45 -72 23 -52 28 -74 26 -127 -1 -35 -6 -69
-12 -75 -5 -7 -9 -23 -9 -36 -1 -14 -1 -35 -1 -47 0 -14 -12 -29 -30 -40 -17
-9 -30 -25 -30 -34 0 -9 -9 -28 -20 -42 -11 -14 -20 -29 -20 -34 0 -4 16 -26
36 -48 81 -87 90 -126 49 -213 l-25 -53 20 -37 c11 -20 20 -56 20 -80 l0 -43
38 6 c61 11 69 14 52 25 -11 7 -6 10 20 10 19 0 45 3 58 6 16 5 22 2 22 -9 0
-23 31 -37 77 -35 21 1 83 0 138 -2 87 -3 100 -1 103 13 5 23 19 21 32 -3 15
-27 33 -25 26 3 -3 12 -3 16 0 10 3 -7 11 -13 18 -13 9 0 16 42 25 148 7 81
16 197 22 258 5 61 6 132 3 157 -6 42 -4 50 20 73 14 15 26 23 26 19 0 -5 10
1 23 12 28 26 116 47 159 38 18 -4 56 -18 84 -30 30 -13 73 -23 105 -23 72 -2
108 -11 141 -33 14 -11 29 -19 32 -19 17 0 69 -59 86 -98 18 -39 20 -67 19
-231 0 -102 -4 -207 -8 -233 -5 -28 -4 -48 1 -48 5 0 7 -4 3 -10 -9 -15 56
-43 109 -46 27 -2 52 -7 55 -12 3 -5 17 -15 30 -22 19 -10 25 -10 32 1 5 8 9
10 9 5 0 -5 6 -3 14 3 11 9 15 9 19 -1 4 -8 6 -7 6 5 1 9 9 17 19 17 9 0 26 7
36 15 11 8 28 15 38 15 10 0 18 5 18 10 0 6 -4 10 -9 10 -10 0 -8 27 3 52 5
10 3 31 -2 48 -7 18 -7 30 -2 30 6 0 16 16 24 35 10 23 27 41 50 52 20 9 36
20 36 23 0 13 157 0 195 -15 20 -9 42 -12 48 -8 18 12 50 10 55 -5 2 -6 -3
-12 -12 -12 -23 0 -31 -22 -13 -35 9 -6 19 -23 22 -38 4 -15 11 -27 16 -27 5
0 9 -32 9 -71 0 -39 -4 -68 -9 -65 -7 5 -21 -14 -21 -28 0 -2 72 0 162 3 18 1
18 27 0 71 -5 14 -10 28 -11 32 -1 4 -4 15 -8 24 -3 9 -2 37 3 63 8 42 11 46
42 49 17 2 32 7 32 13 0 5 12 9 27 9 l27 0 -32 -28 c-25 -23 -30 -34 -26 -57
3 -16 7 -31 9 -33 2 -2 42 -5 89 -6 l86 -1 0 463 0 462 -1282 0 c-800 0 -1277
-4 -1267 -10z m1757 -187 c82 -39 132 -123 118 -198 -6 -31 -14 -40 -49 -56
-82 -37 -182 -19 -235 42 -48 55 -63 91 -60 143 2 47 3 49 42 67 52 23 137 24
184 2z m292 -258 c0 -20 -20 -27 -62 -23 l-33 4 35 16 c45 21 60 22 60 3z
m-1889 -347 c11 -11 19 -29 19 -40 0 -10 7 -18 15 -18 8 0 15 7 15 16 0 13 3
14 15 4 12 -10 11 -17 -11 -46 -33 -42 -74 -48 -66 -9 4 25 -13 36 -20 13 -2
-6 -10 -8 -17 -4 -9 6 -8 13 5 28 11 11 17 32 16 49 -3 35 4 36 29 7z m69 -2
c0 -3 -4 -8 -10 -11 -5 -3 -10 -1 -10 4 0 6 5 11 10 11 6 0 10 -2 10 -4z
m1927 -12 c-3 -3 -12 -4 -19 -1 -8 3 -5 6 6 6 11 1 17 -2 13 -5z m-2027 -104
c0 -5 -7 -10 -16 -10 -8 0 -12 5 -9 10 3 6 10 10 16 10 5 0 9 -4 9 -10z m2087
-22 c-3 -8 -6 -5 -6 6 -1 11 2 17 5 13 3 -3 4 -12 1 -19z m-20 -10 c-3 -8 -6
-5 -6 6 -1 11 2 17 5 13 3 -3 4 -12 1 -19z"/>
<path d="M3842 5300 c0 -14 2 -19 5 -12 2 6 2 18 0 25 -3 6 -5 1 -5 -13z"/>
<path d="M3780 4689 c0 -5 5 -7 10 -4 6 3 10 8 10 11 0 2 -4 4 -10 4 -5 0 -10
-5 -10 -11z"/>
<path d="M3675 4556 c-82 -26 -230 -122 -296 -193 -81 -87 -145 -196 -155
-265 -3 -23 -8 -50 -11 -58 -12 -34 0 -145 24 -227 17 -56 27 -114 27 -160 1
-39 4 -75 9 -79 4 -4 7 27 7 69 0 42 4 77 8 77 12 0 45 -98 39 -114 -6 -16 29
-200 44 -227 5 -10 9 -25 9 -35 0 -18 -15 -17 -103 5 -31 7 -36 7 -27 -4 6 -7
30 -18 55 -24 42 -11 44 -13 48 -53 l4 -43 1 43 c2 41 22 62 22 22 0 -10 14
-35 31 -54 40 -46 34 -59 -15 -35 -22 10 -42 17 -45 14 -8 -9 59 -65 77 -65
27 0 45 -17 39 -34 -7 -17 -37 -22 -37 -6 0 6 -4 10 -10 10 -5 0 -10 -5 -10
-12 0 -6 -7 -19 -16 -29 -15 -17 -15 -21 4 -51 12 -19 28 -47 36 -63 15 -27
16 -28 16 -7 0 12 -7 34 -16 47 -15 23 -14 26 11 60 15 19 30 35 34 35 3 0 17
-16 30 -35 39 -57 57 -42 21 17 -11 18 -20 40 -20 49 0 18 -48 113 -78 156
-27 38 -48 119 -34 136 5 6 12 29 16 49 7 36 53 87 79 89 7 0 42 3 79 7 79 9
77 12 79 -118 0 -47 4 -105 7 -130 4 -25 4 -81 0 -125 -5 -44 -12 -136 -17
-205 -10 -136 -16 -160 -37 -160 -8 0 -14 -4 -14 -8 0 -5 -6 -9 -12 -9 -7 0
-23 -3 -35 -7 -15 -5 -23 -3 -23 4 0 6 -5 8 -10 5 -6 -4 -22 1 -35 9 -25 16
-32 12 -17 -10 11 -17 68 -44 92 -44 16 0 20 -7 20 -37 1 -21 9 -54 20 -73
l19 -35 -5 50 c-3 28 -7 60 -9 71 -4 20 10 34 35 34 5 0 12 -26 16 -57 4 -32
12 -61 18 -65 7 -5 7 -8 1 -8 -15 0 -18 -192 -3 -201 8 -5 6 -19 -6 -48 -20
-50 -20 -52 -1 -45 12 5 14 -2 12 -34 -2 -44 -17 -47 -17 -4 0 20 -3 23 -12
14 -9 -9 -7 -22 10 -57 26 -54 27 -72 6 -125 l-16 -40 -23 26 c-20 23 -23 24
-38 10 -8 -9 -20 -16 -26 -16 -6 0 -8 -7 -5 -15 3 -7 -6 -30 -21 -50 -15 -19
-23 -35 -18 -35 12 0 -17 -142 -30 -151 -5 -4 -6 -12 -3 -18 4 -6 3 -11 -2
-11 -5 0 -12 9 -15 20 -6 23 2 60 13 60 4 0 8 12 8 26 l0 26 -20 -30 c-11 -17
-20 -51 -21 -80 -1 -28 -5 -46 -8 -40 -4 6 -8 -4 -11 -21 -2 -17 -1 -31 4 -31
5 0 6 -5 3 -11 -4 -6 7 -22 24 -36 17 -14 31 -31 31 -38 0 -7 6 -18 14 -24 15
-13 64 -109 90 -179 18 -48 21 -86 6 -77 -5 3 -10 15 -10 26 0 10 -9 27 -20
36 -11 10 -20 23 -20 30 0 6 -16 24 -36 40 -20 15 -54 55 -76 90 -22 35 -42
63 -44 63 -3 0 -3 -18 -2 -39 2 -22 5 -37 7 -35 2 2 17 -22 33 -53 16 -32 38
-67 48 -79 11 -11 20 -25 20 -31 0 -18 -44 -24 -56 -8 -6 8 -18 15 -27 15 -9
0 -19 4 -22 10 -8 13 -25 13 -25 -1 0 -16 60 -98 103 -141 43 -44 44 -78 1
-78 -13 0 -24 -4 -24 -10 0 -13 37 -13 45 0 12 20 25 9 25 -21 0 -28 2 -30 16
-18 15 12 16 9 10 -31 -4 -25 -10 -58 -13 -74 -5 -27 -4 -28 22 -22 26 7 26 6
20 -24 -4 -19 -2 -36 6 -46 14 -17 12 -20 -24 -29 -21 -6 -27 -4 -27 9 0 14
-4 15 -20 6 -29 -15 -25 -30 8 -30 34 0 82 -21 82 -36 0 -7 9 -14 19 -17 21
-5 25 -42 8 -65 -6 -7 -7 -15 -4 -19 13 -12 -16 -33 -44 -33 -16 0 -29 -4 -29
-10 0 -5 5 -10 11 -10 8 0 7 -5 -2 -16 -9 -11 -22 -14 -48 -9 -34 6 -35 6 -16
-9 11 -9 42 -16 70 -16 l50 -2 -35 -15 c-37 -16 -133 -11 -157 9 -7 5 -21 7
-32 3 -11 -3 -34 1 -50 9 -33 18 -106 22 -96 6 3 -5 14 -10 24 -10 9 0 28 -10
41 -22 24 -23 29 -23 225 -20 l200 3 33 -71 c17 -39 32 -77 32 -85 0 -8 5 -17
10 -20 18 -11 40 -76 40 -115 0 -48 8 -70 26 -70 8 0 14 -7 14 -15 0 -8 9 -15
20 -15 11 0 20 -7 20 -15 0 -18 -16 -20 -23 -2 -3 7 -6 5 -6 -5 -1 -12 6 -18
19 -18 11 0 20 -7 20 -15 0 -8 -6 -15 -14 -15 -23 0 -28 -57 -17 -222 1 -5 46
-8 101 -8 l100 0 -6 24 c-4 18 -1 25 18 29 14 4 25 1 30 -7 4 -8 19 -17 33
-20 14 -4 25 -11 25 -16 0 -6 17 -10 39 -10 34 0 39 3 44 27 7 36 0 42 -13 12
-10 -22 -10 -22 -5 6 4 17 8 41 9 54 2 14 8 27 14 29 7 2 12 8 12 13 0 4 -7 6
-15 3 -12 -5 -14 2 -10 38 7 74 10 82 28 102 21 24 22 36 1 36 -13 0 -15 9
-12 45 2 25 -1 47 -7 49 -5 3 -3 5 6 5 19 1 35 34 20 39 -6 2 -11 19 -11 38 0
24 4 33 12 28 8 -5 9 4 5 34 -7 43 -1 75 14 66 5 -3 9 -1 9 5 0 5 -5 11 -12
13 -8 3 -4 23 13 66 19 49 28 62 41 58 10 -2 21 1 25 6 3 7 1 8 -5 4 -15 -9
-15 -1 1 52 7 23 16 40 20 36 4 -4 5 8 1 27 -6 34 -5 34 9 9 8 -16 11 -31 5
-42 -12 -26 -10 -31 8 -14 8 9 21 16 29 16 17 0 25 -35 11 -51 -8 -9 -7 -10 7
-5 13 4 17 2 14 -6 -2 -7 -11 -12 -21 -10 -9 2 -16 -2 -16 -8 0 -6 5 -8 12 -4
8 5 9 0 5 -17 -6 -23 -5 -23 8 -5 8 11 15 15 15 9 0 -11 -46 -101 -62 -121 -6
-7 -8 -15 -5 -19 4 -3 16 5 27 18 l20 24 -7 -34 c-4 -23 -2 -36 8 -42 12 -8
11 -9 -1 -7 -8 2 -16 -1 -17 -6 -1 -5 -7 -13 -15 -17 -9 -7 -10 -11 -1 -17 8
-5 8 -17 -3 -47 -8 -22 -16 -67 -18 -100 -1 -33 -8 -71 -14 -85 -6 -14 -17
-45 -23 -70 -7 -25 -14 -47 -15 -50 -1 -3 -5 -15 -9 -27 -4 -13 -11 -23 -15
-23 -4 0 -10 -10 -14 -22 -4 -17 -8 -20 -14 -10 -5 7 -16 10 -27 6 -17 -7 -16
-8 5 -16 20 -7 22 -13 16 -47 -6 -37 -5 -39 25 -45 51 -10 281 -7 274 4 -3 5
-13 6 -22 3 -11 -4 -14 -3 -9 6 5 8 3 11 -6 9 -17 -4 -104 58 -89 63 6 2 -1
17 -15 32 -22 24 -24 31 -13 42 8 7 28 16 44 19 27 7 28 6 12 -6 -17 -13 -17
-14 2 -15 12 -1 34 -11 49 -22 41 -29 143 -73 150 -65 4 4 1 9 -6 11 -8 3 -27
18 -43 34 -16 16 -36 29 -44 29 -8 0 -15 7 -15 15 0 8 -6 15 -14 15 -21 0 -40
26 -25 36 8 4 9 3 5 -4 -4 -7 -6 -12 -4 -13 55 -11 133 -7 201 11 44 12 91 20
103 17 15 -2 24 1 24 8 0 18 -21 30 -55 33 -21 2 -26 0 -17 -6 11 -7 7 -11
-13 -16 -40 -10 -92 3 -118 30 -12 13 -27 24 -33 24 -6 0 -17 6 -23 14 -10 12
-6 16 22 25 19 7 41 9 49 6 8 -3 48 3 88 14 67 19 76 19 97 6 26 -17 56 -8 67
21 9 25 7 41 -4 24 -8 -12 -10 -12 -10 5 0 15 -7 20 -25 20 -14 0 -25 -2 -25
-5 0 -10 -59 -31 -69 -26 -5 4 -12 2 -16 -3 -3 -6 -27 -13 -53 -16 -72 -9
-169 -45 -204 -74 -10 -8 -18 -9 -18 -4 0 6 7 14 16 17 8 3 12 10 9 16 -4 6
-20 -1 -41 -16 -19 -15 -34 -22 -34 -16 0 6 6 15 13 19 8 4 16 16 20 26 5 14
3 16 -9 9 -28 -16 -64 -2 -64 24 0 13 4 24 10 24 5 0 7 -8 3 -17 -4 -13 1 -11
18 7 13 13 22 33 21 43 -2 10 4 27 14 38 19 21 13 24 -15 10 -13 -8 -17 -5
-18 12 -1 12 1 17 5 10 5 -8 14 -7 32 3 24 14 24 15 3 11 -26 -6 -32 10 -8 19
8 4 15 16 14 28 0 20 -1 20 -8 2 -7 -19 -8 -19 -15 0 -5 14 0 25 21 41 15 13
23 23 16 23 -6 0 -15 -4 -18 -10 -12 -20 -26 -10 -14 11 6 12 8 30 6 41 -4 16
-3 17 9 7 9 -7 14 -8 14 -1 0 6 -4 14 -10 17 -5 3 -10 11 -10 16 0 6 4 8 10 4
5 -3 8 7 5 24 -2 20 3 35 16 47 11 10 17 24 15 31 -3 7 5 19 16 27 12 9 18 19
14 23 -5 5 -11 2 -13 -4 -3 -7 -10 -13 -16 -13 -6 0 -1 10 11 23 12 13 22 29
22 36 0 7 4 10 9 6 12 -7 25 31 15 47 -5 8 -2 9 10 5 10 -4 16 -2 15 6 -3 18
12 48 21 42 5 -3 8 7 6 22 -1 16 3 43 11 62 7 18 13 49 13 67 0 19 4 34 8 34
5 0 7 14 4 30 -2 17 0 30 6 30 6 0 8 18 5 45 -3 33 -1 45 9 45 10 0 10 2 -1 9
-10 6 -12 21 -8 50 3 23 1 39 -4 35 -5 -3 -9 4 -9 15 0 30 -34 90 -85 150 -46
54 -76 112 -96 185 -16 57 -37 236 -29 241 4 2 10 26 13 52 11 97 72 214 127
246 22 13 27 13 43 -3 9 -9 17 -22 17 -28 0 -7 5 -12 11 -12 6 0 9 -6 6 -14
-4 -9 3 -16 16 -20 25 -6 37 2 18 13 -7 5 -10 14 -7 20 4 6 0 11 -9 11 -8 0
-20 11 -25 24 -5 13 -14 27 -19 31 -6 3 -11 13 -11 21 0 9 -10 30 -23 47 -23
33 -43 79 -56 132 -4 17 -16 45 -25 64 -10 18 -16 44 -13 57 2 13 1 21 -3 19
-9 -6 -23 33 -20 58 1 9 -2 17 -7 17 -4 0 -19 21 -32 48 -14 26 -35 61 -48 79
-13 17 -23 38 -23 45 0 7 -9 31 -19 53 -65 136 -101 214 -101 219 0 4 -11 24
-25 46 -14 22 -25 48 -25 58 0 10 -9 28 -20 39 -10 12 -22 34 -26 50 -4 15
-16 38 -27 50 -11 13 -20 35 -19 52 0 16 -6 35 -14 42 -8 6 -17 29 -20 50 -4
21 -13 44 -20 50 -17 14 -18 46 -1 52 8 4 7 6 -3 6 -16 1 -43 58 -46 96 0 11
-8 34 -17 50 -9 17 -17 41 -17 53 0 13 -9 37 -20 52 -11 16 -20 43 -19 62 1
36 -12 92 -28 123 -6 11 -16 47 -23 80 -11 60 -39 146 -50 155 -3 3 -21 36
-40 74 -50 100 -93 121 -185 92z m-15 -86 c0 -5 -7 -10 -15 -10 -8 0 -15 5
-15 10 0 6 7 10 15 10 8 0 15 -4 15 -10z m-130 -325 c0 -3 -8 -22 -17 -43 -15
-35 -17 -36 -21 -12 -2 13 1 26 7 28 6 2 11 10 11 18 0 8 5 14 10 14 6 0 10
-2 10 -5z m-155 -34 c3 -5 0 -13 -6 -16 -6 -4 -8 -17 -5 -30 3 -13 -1 -36 -9
-51 -8 -16 -15 -38 -15 -50 0 -23 -27 -82 -46 -102 -11 -10 -14 -6 -19 22 -6
32 -1 51 51 206 4 13 6 13 14 0 8 -12 10 -10 10 8 0 22 14 30 25 13z m121
-168 c-5 -61 -5 -62 15 -50 14 9 18 20 15 40 -3 16 0 25 6 21 5 -4 8 -22 6
-40 -2 -19 0 -34 4 -34 4 0 8 -27 8 -60 0 -33 -4 -60 -8 -60 -18 0 -75 74 -83
108 -12 51 -11 115 2 149 10 27 11 28 26 8 11 -15 13 -35 9 -82z m-141 -142
c-12 -11 -24 16 -18 39 l7 25 7 -30 c5 -16 6 -31 4 -34z m155 -111 c0 -5 -5
-10 -11 -10 -5 0 -7 5 -4 10 3 6 8 10 11 10 2 0 4 -4 4 -10z m10 -35 c0 -1 -7
-8 -15 -15 -13 -10 -15 -9 -15 8 0 15 5 20 15 16 8 -4 15 -7 15 -9z m-70 -10
c11 -13 8 -15 -14 -15 -25 0 -33 10 -19 23 10 11 19 8 33 -8z m277 -172 c-3
-10 -5 -4 -5 12 0 17 2 24 5 18 2 -7 2 -21 0 -30z m-17 -240 c-9 -15 -10 -12
-6 16 3 18 7 45 8 60 1 14 3 7 5 -16 2 -24 -1 -51 -7 -60z m2 -106 c-5 -20 -6
-20 -12 -1 -4 10 -5 25 -2 32 8 22 21 -6 14 -31z m608 -1067 c0 -5 -4 -10 -10
-10 -5 0 -10 5 -10 10 0 6 5 10 10 10 6 0 10 -4 10 -10z m-720 -67 c-5 -16
-13 -44 -19 -64 -6 -19 -11 -58 -11 -85 -1 -40 -3 -46 -12 -30 -14 25 -5 134
16 174 20 39 37 42 26 5z m897 -35 c-2 -13 -4 -3 -4 22 0 25 2 35 4 23 2 -13
2 -33 0 -45z m-737 -472 c0 -3 -4 -8 -10 -11 -5 -3 -10 -1 -10 4 0 6 5 11 10
11 6 0 10 -2 10 -4z m267 -208 c-2 -13 -4 -5 -4 17 -1 22 1 32 4 23 2 -10 2
-28 0 -40z m583 -10 c0 -16 -16 -7 -34 19 l-20 27 27 -20 c14 -10 27 -22 27
-26z m38 -43 c2 -18 2 -18 -8 -2 -16 25 -28 21 -22 -8 2 -14 8 -22 13 -19 5 3
9 1 9 -4 0 -6 -7 -13 -16 -16 -14 -5 -14 -9 -3 -23 8 -9 9 -14 3 -10 -6 3 -18
-7 -28 -24 -9 -16 -21 -29 -27 -29 -13 0 -11 12 7 38 9 13 14 32 11 43 -3 10
-1 19 5 19 6 0 7 7 4 15 -3 8 -9 22 -12 31 -6 13 0 15 27 12 25 -2 35 -8 37
-23z m-74 -71 c3 -8 2 -12 -4 -9 -6 3 -10 10 -10 16 0 14 7 11 14 -7z m-1012
-19 c3 -14 1 -28 -3 -31 -5 -3 -9 9 -9 25 0 38 6 40 12 6z m1058 -73 c0 -10
-22 -32 -32 -32 -5 0 -3 9 4 20 13 20 28 27 28 12z m-142 -129 c4 -26 -23 -50
-32 -28 -3 8 -1 15 5 15 6 0 8 9 4 21 -5 15 -3 20 6 17 8 -3 15 -14 17 -25z
m-628 -311 c0 -7 -4 -10 -10 -7 -5 3 -10 16 -10 28 0 18 2 19 10 7 5 -8 10
-21 10 -28z m55 -212 c3 -5 -1 -10 -10 -10 -9 0 -13 5 -10 10 3 6 8 10 10 10
2 0 7 -4 10 -10z m105 -20 c0 -5 -4 -10 -9 -10 -6 0 -13 5 -16 10 -3 6 1 10 9
10 9 0 16 -4 16 -10z m42 -34 c3 -5 0 -27 -8 -49 -8 -21 -12 -43 -9 -47 3 -5
0 -12 -6 -16 -7 -4 -7 -9 -1 -13 5 -3 12 -16 16 -28 9 -30 -7 -30 -36 -1 -24
24 -27 86 -5 100 9 5 9 12 1 25 -19 30 27 58 48 29z m118 -75 c0 -11 5 -23 10
-26 6 -3 10 3 10 15 0 13 5 20 13 18 8 -3 13 -37 14 -114 2 -80 0 -104 -8 -91
-5 9 -14 15 -18 12 -5 -2 -15 2 -22 11 -16 20 -25 194 -9 194 5 0 10 -9 10
-19z m570 -67 c0 -2 -12 -4 -26 -4 -14 0 -23 4 -20 9 6 8 46 4 46 -5z"/>
<path d="M4180 195 c0 -15 18 -40 24 -34 3 3 -1 14 -9 25 -8 10 -14 15 -15 9z"/>
<path d="M4030 4510 c0 -5 5 -10 10 -10 6 0 10 5 10 10 0 6 -4 10 -10 10 -5 0
-10 -4 -10 -10z"/>
<path d="M5692 4440 c0 -14 2 -19 5 -12 2 6 2 18 0 25 -3 6 -5 1 -5 -13z"/>
<path d="M5672 4332 c-16 -29 -38 -47 -85 -71 -54 -27 -69 -31 -107 -25 -44 7
-44 7 -26 -11 17 -17 17 -20 2 -31 -10 -7 -13 -15 -7 -18 10 -6 -16 -67 -31
-74 -5 -2 -8 -10 -8 -18 0 -8 -7 -17 -15 -20 -8 -4 -15 -14 -15 -24 0 -11 -4
-22 -10 -25 -5 -3 -10 -1 -10 6 0 7 -3 10 -6 6 -4 -3 16 -28 43 -54 27 -26 60
-70 74 -98 l24 -49 64 -2 c49 -2 72 -9 102 -28 l39 -26 0 300 c0 165 -1 300
-3 300 -2 0 -13 -17 -25 -38z"/>
<path d="M4990 4039 c0 -5 5 -7 10 -4 6 3 10 8 10 11 0 2 -4 4 -10 4 -5 0 -10
-5 -10 -11z"/>
<path d="M4970 4000 c-13 -8 -12 -10 3 -10 9 0 17 5 17 10 0 12 -1 12 -20 0z"/>
<path d="M0 3393 c0 -649 -4 -615 67 -553 18 16 40 30 48 30 8 0 15 6 15 14 0
8 10 16 23 20 12 3 37 18 55 34 27 24 30 31 17 36 -9 3 -14 10 -11 15 3 5 -1
14 -9 21 -8 7 -12 16 -10 21 3 4 -3 17 -15 29 -18 18 -20 33 -20 130 0 61 3
110 8 110 4 0 7 119 7 265 0 146 -3 265 -7 265 -5 0 -8 9 -8 19 0 23 -45 61
-71 61 -9 0 -25 7 -33 16 -9 8 -16 12 -16 9 0 -4 -9 3 -20 16 -19 24 -19 22
-20 -558z"/>
<path d="M4970 3960 c0 -5 5 -10 10 -10 6 0 10 5 10 10 0 6 -4 10 -10 10 -5 0
-10 -4 -10 -10z"/>
<path d="M5020 3945 c0 -8 -5 -15 -11 -15 -5 0 -7 5 -3 12 4 7 3 8 -5 4 -9 -6
-9 -11 0 -22 13 -15 34 -20 24 -5 -3 5 -1 12 5 16 13 8 13 25 0 25 -5 0 -10
-7 -10 -15z"/>
<path d="M2680 3930 c-14 -3 11 -7 55 -10 66 -4 80 -8 83 -23 3 -16 -8 -17
-135 -16 -78 0 -143 5 -150 11 -16 13 -74 -6 -98 -32 -20 -22 -31 -145 -14
-156 12 -7 -8 -34 -25 -34 -6 0 -13 -11 -14 -25 -1 -21 3 -25 23 -25 25 0 25
-1 27 -102 2 -119 -2 -245 -11 -338 -5 -60 -8 -65 -31 -69 -14 -1 -28 -8 -32
-15 -5 -7 -11 -8 -15 -1 -11 14 -97 20 -89 6 4 -5 -3 -19 -16 -30 -23 -22 -18
-42 6 -22 9 7 39 11 77 9 59 -3 63 -5 80 -36 10 -17 26 -56 35 -85 24 -76 57
-145 96 -203 30 -44 35 -59 36 -117 1 -37 9 -86 17 -109 10 -30 11 -46 3 -55
-6 -7 -8 -13 -5 -13 4 0 -1 -19 -9 -42 -31 -87 -36 -140 -19 -213 9 -38 23
-74 30 -79 12 -9 12 -47 5 -226 -5 -118 -11 -287 -14 -375 -4 -133 -8 -169
-26 -215 -12 -30 -20 -67 -17 -83 2 -15 -1 -26 -6 -24 -6 2 -12 14 -14 27 -4
27 -31 108 -41 124 -4 6 -7 13 -7 16 -4 22 -30 97 -37 104 -4 6 -8 21 -8 34 0
27 -35 109 -56 129 -18 18 -18 33 -1 33 7 0 18 5 25 12 9 9 6 14 -10 22 -12 6
-27 27 -34 46 -75 208 -83 234 -72 253 17 32 -30 67 -88 67 -38 0 -44 3 -44
21 0 11 -4 28 -9 37 -15 30 -20 122 -6 122 7 0 15 -9 18 -20 4 -17 14 -20 60
-20 31 0 59 5 65 13 5 6 10 65 10 130 0 65 3 121 6 124 3 3 1 14 -5 24 -8 15
-21 19 -64 19 -38 0 -55 -4 -55 -13 0 -7 -9 -18 -20 -24 -23 -15 -57 -4 -82
26 -16 18 -29 21 -100 21 -103 0 -128 -7 -128 -32 0 -11 -5 -18 -12 -15 -7 2
-21 -2 -30 -10 -41 -36 -75 31 -66 132 2 34 6 39 23 37 70 -11 195 -13 196 -3
1 6 3 16 4 21 1 6 3 17 4 26 1 11 7 13 21 9 15 -5 18 -3 14 9 -3 9 -10 16 -16
16 -5 0 -7 4 -3 9 3 5 -5 12 -17 14 -13 2 8 5 45 6 l68 1 20 -45 c19 -42 23
-45 58 -45 25 0 44 -7 56 -20 12 -13 29 -20 44 -18 25 3 26 7 31 74 4 55 2 70
-8 67 -18 -8 -42 16 -35 34 5 12 2 15 -10 10 -10 -4 -17 -1 -17 6 0 9 -54 13
-213 16 -203 3 -265 11 -253 30 3 5 -4 11 -15 14 -18 5 -21 2 -17 -24 4 -27 2
-29 -28 -29 -18 0 -34 -6 -37 -14 -7 -17 18 -40 33 -31 5 3 10 1 10 -5 0 -8
-9 -10 -23 -6 -14 3 -33 -1 -45 -10 -12 -8 -22 -12 -22 -9 0 4 -13 -3 -29 -14
-36 -26 -47 -73 -26 -114 8 -17 13 -38 10 -47 -3 -10 1 -23 9 -29 11 -10 18
-8 35 10 12 13 21 21 22 18 3 -16 0 -102 -6 -144 -10 -77 -25 -114 -60 -154
-37 -41 -109 -210 -123 -291 -7 -35 -7 -63 0 -79 11 -30 2 -23 -21 16 -17 27
-24 29 -120 33 -24 2 -38 6 -31 10 18 11 -24 23 -50 15 -15 -5 -29 2 -51 26
-17 19 -26 35 -20 37 6 2 11 14 11 27 0 13 8 25 18 29 9 3 36 21 59 40 36 29
48 33 81 29 22 -3 49 0 61 7 22 11 22 12 5 31 -17 18 -16 19 17 20 l34 1 -30
7 c-16 4 -41 14 -55 21 -32 17 -53 20 -245 25 -88 3 -185 10 -215 15 -30 5
-131 10 -225 10 -156 1 -285 15 -386 41 -20 5 -55 9 -77 9 -22 0 -44 5 -48 11
-3 6 -17 8 -30 5 -13 -4 -41 0 -64 8 l-40 14 0 -724 0 -724 40 0 c22 0 40 -4
40 -10 0 -13 11 -13 30 0 13 9 13 11 0 20 -13 9 -13 11 0 20 13 9 13 11 0 20
-11 7 5 10 53 10 l67 0 0 38 0 37 79 0 c63 0 77 3 69 13 -20 23 19 52 71 52
50 1 76 14 84 45 5 19 5 19 12 -1 5 -16 13 -20 31 -16 30 6 32 22 2 22 -19 0
-20 2 -8 10 21 14 70 12 70 -2 0 -9 5 -8 15 2 11 12 12 27 5 80 -15 100 -13
120 9 120 10 0 21 9 24 19 4 16 11 18 52 13 38 -4 50 -1 57 12 6 10 22 16 43
16 19 0 35 5 35 10 0 10 -42 14 -107 10 -24 -1 -33 3 -33 15 0 12 8 15 33 13
66 -4 187 14 187 28 0 10 14 14 43 16 l42 1 -45 6 c-43 6 -42 6 38 16 61 8 82
7 82 -1 0 -17 76 -22 119 -7 44 16 41 16 41 -1 0 -18 31 -14 44 6 7 11 5 24
-7 42 -17 25 -17 26 2 26 14 0 19 -5 15 -15 -5 -11 0 -14 20 -13 17 2 31 13
43 35 9 18 14 35 10 39 -4 4 -7 0 -7 -9 0 -10 -4 -17 -9 -17 -5 0 -9 20 -8 44
1 24 5 40 8 34 4 -6 11 -3 18 8 10 16 11 14 6 -14 -4 -20 -3 -32 4 -32 17 0
14 -14 -19 -85 -16 -36 -30 -67 -30 -70 0 -4 -42 -95 -119 -260 -16 -33 -56
-121 -89 -195 -214 -479 -340 -754 -437 -950 -25 -51 -45 -99 -45 -106 0 -11
22 -14 99 -14 l98 0 28 62 c15 35 49 110 76 167 27 57 49 105 49 107 0 2 22
50 49 108 28 57 60 126 72 153 35 78 134 291 182 393 25 52 65 140 90 195 39
87 93 202 169 363 11 23 25 42 32 42 7 0 30 40 52 90 38 86 40 90 72 90 22 0
32 -5 32 -15 0 -26 1 -30 14 -45 7 -8 18 -38 24 -65 11 -44 10 -57 -8 -110
-26 -73 -20 -144 11 -152 18 -5 19 -21 19 -527 1 -286 0 -596 0 -688 l-1 -168
106 0 105 0 1 338 c0 185 2 333 4 327 4 -9 14 -111 56 -537 l12 -128 99 0
c114 0 108 -9 84 126 -8 44 -17 122 -20 174 -3 52 -8 106 -11 120 -3 14 -12
95 -20 180 -15 154 -59 564 -91 838 -9 78 -14 145 -11 149 4 3 9 0 11 -8 2 -8
25 -70 50 -139 25 -69 71 -197 102 -285 30 -88 78 -223 106 -300 l50 -140 -17
-115 c-10 -63 -19 -150 -20 -193 -1 -68 -4 -79 -23 -93 -12 -8 -22 -19 -22
-23 0 -11 133 -97 227 -147 71 -38 73 -40 84 -91 l12 -53 64 0 c34 0 63 2 63
4 0 3 -5 17 -11 33 -9 24 -95 269 -114 328 -5 16 -5 17 3 5 6 -8 39 -94 72
-192 l62 -178 45 0 c41 0 44 2 38 23 -3 12 -10 31 -15 42 -5 11 -25 62 -44
113 l-34 94 24 35 c13 20 31 58 38 84 18 59 14 90 -45 397 -6 29 -15 50 -20
46 -6 -3 -7 4 -4 18 4 14 -3 41 -20 73 -28 57 -33 125 -10 165 l14 25 1 -28
c0 -38 31 -160 43 -172 6 -7 8 -2 3 15 -15 62 -18 100 -7 100 6 0 12 -10 13
-22 0 -13 2 -34 3 -48 1 -14 7 -35 14 -48 6 -12 13 -47 15 -79 2 -32 9 -70 15
-84 17 -35 61 -59 107 -59 36 0 37 0 19 20 -18 20 -36 27 -34 13 3 -20 -3 -23
-21 -13 -11 6 -20 18 -20 26 0 8 -4 12 -10 9 -6 -3 -7 1 -4 10 3 8 -3 34 -14
58 -10 23 -23 69 -26 102 -4 33 -12 74 -17 90 -5 17 -18 61 -29 99 -11 38 -25
75 -31 83 -13 14 -7 117 15 283 12 83 15 92 24 70 11 -25 11 -24 11 8 1 18 -3
31 -8 28 -4 -3 -7 13 -5 37 2 23 6 116 8 206 4 108 9 167 17 171 8 6 8 9 0 14
-15 10 -14 27 1 24 7 -2 14 8 15 22 2 23 2 23 -7 5 -6 -14 -8 13 -6 83 2 57 7
106 10 109 3 4 6 -8 6 -25 0 -18 4 -32 8 -32 29 0 -41 314 -73 326 -7 3 -18
26 -24 52 -7 26 -16 63 -22 83 -11 46 -11 71 2 41 11 -29 28 -24 49 14 18 36
17 29 35 168 8 62 22 131 31 152 l16 39 -31 -35 -31 -35 14 35 c9 19 22 58 30
85 l14 50 2 -50 c3 -94 20 0 21 122 1 111 -4 139 -22 128 -5 -4 -9 8 -9 26 0
29 1 31 13 15 12 -16 14 -16 26 -3 7 9 15 41 18 71 5 47 3 56 -10 56 -9 0 -17
11 -20 28 -2 16 -4 9 -4 -18 -1 -25 -6 -56 -11 -70 -8 -20 -10 -9 -11 52 l-1
76 32 8 c18 3 38 14 45 23 16 21 17 102 2 98 -6 -1 -14 4 -16 11 -3 6 3 12 12
12 12 0 15 5 11 16 -3 9 -6 22 -6 31 0 9 -8 14 -22 13 -13 -1 -30 -2 -38 -1
-16 1 -40 44 -40 70 0 9 -14 24 -31 34 -27 15 -30 15 -25 2 3 -9 2 -13 -4 -10
-6 3 -10 12 -10 18 0 12 -109 17 -160 7z m102 -142 c-15 -15 -24 -6 -16 16 5
12 10 14 17 7 8 -8 8 -14 -1 -23z m-26 -24 c7 3 25 1 41 -4 25 -7 23 -8 -19
-9 -50 -1 -98 13 -98 28 0 18 45 17 54 -2 5 -10 15 -16 22 -13z m84 6 c0 -5
-2 -10 -4 -10 -3 0 -8 5 -11 10 -3 6 -1 10 4 10 6 0 11 -4 11 -10z m-177 -13
c3 -8 1 -20 -3 -28 -5 -8 -4 -19 3 -28 7 -9 -9 2 -35 23 -27 21 -48 40 -48 42
0 11 79 2 83 -9z m317 -17 c0 -5 -7 -10 -15 -10 -8 0 -15 5 -15 10 0 6 7 10
15 10 8 0 15 -4 15 -10z m-90 -15 c0 -8 -4 -15 -10 -15 -5 0 -10 7 -10 15 0 8
5 15 10 15 6 0 10 -7 10 -15z m-57 -85 c9 -11 17 -21 17 -23 0 -2 -69 0 -100
2 -3 1 -6 10 -7 21 -2 17 4 20 35 20 25 0 43 -7 55 -20z m-223 -34 c0 -3 -4
-8 -10 -11 -5 -3 -10 -1 -10 4 0 6 5 11 10 11 6 0 10 -2 10 -4z m-53 -192 c3
-8 -14 -14 -44 -16 -57 -5 -59 -4 -42 16 16 18 80 18 86 0z m380 -161 c-2 -21
-4 -6 -4 32 0 39 2 55 4 38 2 -18 2 -50 0 -70z m0 -75 c-3 -8 -6 -5 -6 6 -1
11 2 17 5 13 3 -3 4 -12 1 -19z m-127 -358 c0 -23 -19 -74 -25 -68 -9 8 7 98
16 92 5 -3 9 -14 9 -24z m-40 -40 c0 -5 -4 -10 -10 -10 -5 0 -10 5 -10 10 0 6
5 10 10 10 6 0 10 -4 10 -10z m-680 -23 c0 -7 -191 2 -200 10 -3 3 41 3 98 2
56 -2 102 -7 102 -12z m60 6 c0 -5 -11 -13 -25 -20 -20 -9 -25 -8 -25 2 0 8
10 16 23 18 12 2 23 5 25 6 1 0 2 -2 2 -6z m580 -164 c0 -5 -4 -9 -8 -9 -4 0
-9 -11 -10 -25 -1 -14 2 -25 7 -25 5 0 11 -8 14 -17 3 -14 5 -12 10 7 22 93
20 89 27 40 5 -31 4 -50 -5 -60 -7 -8 -19 -34 -26 -58 -15 -52 -23 -49 -11 5
7 32 6 40 -5 40 -10 0 -13 -7 -9 -21 6 -26 -3 -41 -31 -50 -17 -5 -24 -1 -36
23 -12 25 -13 38 -2 85 7 30 19 61 26 69 13 14 59 11 59 -4z m-747 -126 c-7
-2 -21 -2 -30 0 -10 3 -4 5 12 5 17 0 24 -2 18 -5z m227 -13 c12 -8 9 -10 -12
-10 -16 0 -28 5 -28 10 0 13 20 13 40 0z m-230 -10 c11 -7 12 -10 2 -10 -11 0
-12 -18 -8 -85 3 -47 7 -90 8 -97 2 -7 -7 -14 -20 -16 -23 -4 -23 -3 -17 85 4
48 8 94 10 101 3 6 0 12 -6 12 -6 0 -7 5 -4 10 8 12 16 12 35 0z m-190 -70 c3
-1 8 -2 13 -1 4 0 7 -5 7 -12 0 -8 -15 -14 -42 -15 -24 0 -37 1 -30 4 6 3 12
12 12 19 0 11 18 13 40 5z m341 -15 c0 -5 -12 -11 -26 -13 -18 -2 -25 1 -25
13 0 12 7 15 25 13 14 -2 26 -7 26 -13z m586 -17 c-3 -7 -5 -2 -5 12 0 14 2
19 5 13 2 -7 2 -19 0 -25z m-936 -104 c11 -14 10 -21 -4 -46 -13 -22 -14 -34
-7 -43 8 -9 6 -14 -5 -19 -8 -3 -15 -15 -15 -26 0 -13 -10 -25 -27 -32 l-28
-11 25 -7 c21 -6 22 -8 8 -14 -24 -11 -53 -3 -52 14 1 8 4 35 7 60 l6 45 -11
-48 c-12 -51 -34 -59 -31 -11 4 64 15 114 24 114 5 0 9 -9 9 -20 0 -13 7 -20
19 -20 11 0 28 -3 38 -6 15 -6 16 -4 6 7 -14 14 -18 61 -6 72 11 12 30 8 44
-9z m-145 -39 c-11 -45 -25 -75 -35 -75 -20 0 -20 18 0 58 23 46 45 57 35 17z
m339 5 c-4 -6 -2 -17 5 -25 9 -10 6 -15 -10 -20 -12 -4 -27 -2 -32 3 -16 16 1
52 23 52 12 0 17 -5 14 -10z m-618 -46 c-3 -3 -12 -4 -19 -1 -8 3 -5 6 6 6 11
1 17 -2 13 -5z m203 -4 c0 -5 -4 -10 -10 -10 -5 0 -10 5 -10 10 0 6 5 10 10
10 6 0 10 -4 10 -10z m1213 -36 c5 -30 -8 -20 -18 15 -4 15 -3 21 3 17 5 -3
12 -17 15 -32z m-1233 6 c0 -5 -2 -10 -4 -10 -3 0 -8 5 -11 10 -3 6 -1 10 4
10 6 0 11 -4 11 -10z m35 0 c3 -5 1 -10 -4 -10 -6 0 -11 5 -11 10 0 6 2 10 4
10 3 0 8 -4 11 -10z m405 -28 c30 -13 17 -37 -22 -40 -32 -3 -38 0 -38 17 0
27 28 37 60 23z m-156 -75 c-2 -7 -13 -13 -24 -13 -11 0 -20 6 -20 13 0 7 11
13 25 13 16 0 23 -5 19 -13z m1046 -69 c-12 -52 -32 -94 -37 -80 -3 7 0 19 6
26 6 7 13 28 15 47 3 19 5 35 5 37 1 1 5 2 10 2 5 0 5 -14 1 -32z m-1025 -8
c3 -5 -1 -10 -9 -10 -9 0 -16 5 -16 10 0 6 4 10 9 10 6 0 13 -4 16 -10z m-628
-16 c-3 -3 -12 -4 -19 -1 -8 3 -5 6 6 6 11 1 17 -2 13 -5z m626 -37 c-7 -11
-23 2 -23 19 0 12 2 12 14 2 8 -7 12 -16 9 -21z m845 24 c10 -6 10 -10 -3 -21
-18 -15 -42 0 -31 19 8 13 16 14 34 2z m7 -55 c18 -13 18 -14 -3 -25 -29 -16
-32 -14 -32 14 0 28 8 31 35 11z m-1225 -51 c0 -5 -5 -3 -10 5 -5 8 -10 20
-10 25 0 6 5 3 10 -5 5 -8 10 -19 10 -25z m1341 -2 c-12 -20 -14 -14 -5 12 4
9 9 14 11 11 3 -2 0 -13 -6 -23z m-103 -15 c2 -10 -6 -19 -18 -23 -25 -8 -17
-20 13 -20 27 0 30 -28 4 -33 -26 -5 -47 16 -47 47 0 44 40 68 48 29z m-1274
-34 c6 -14 4 -15 -10 -4 -13 12 -17 11 -25 -1 -7 -11 -9 -11 -9 4 0 22 36 23
44 1z m1336 -24 c-6 -11 -13 -20 -16 -20 -2 0 0 9 6 20 6 11 13 20 16 20 2 0
0 -9 -6 -20z m-678 -22 c-9 -9 -12 -7 -12 12 0 19 3 21 12 12 9 -9 9 -15 0
-24z m648 -38 c-6 -12 -17 -16 -35 -13 -15 3 -25 1 -25 -6 0 -6 10 -11 21 -11
20 0 20 -2 7 -22 -25 -38 -43 -29 -45 24 -2 41 0 47 20 50 12 2 32 2 44 0 18
-3 21 -8 13 -22z m-1368 -2 c-7 -7 -12 -8 -12 -2 0 6 3 14 7 17 3 4 9 5 12 2
2 -3 -1 -11 -7 -17z m1308 -106 c0 -5 -6 -17 -14 -28 -10 -13 -14 -14 -13 -4
4 26 27 54 27 32z m-1209 -69 c-11 -21 -20 -35 -21 -32 0 14 31 81 36 76 3 -3
-4 -22 -15 -44z m949 -253 c132 -369 190 -539 190 -551 0 -19 -18 -8 -23 14
-2 12 -64 193 -137 402 -125 359 -150 437 -137 425 3 -3 51 -133 107 -290z
m-1557 273 c-13 -2 -33 -2 -45 0 -13 2 -3 4 22 4 25 0 35 -2 23 -4z m1504 -29
c0 -15 7 -31 15 -36 10 -8 10 -9 -2 -6 -19 6 -45 68 -28 68 7 0 14 -12 15 -26z
m-1690 -30 c-3 -3 -12 -4 -19 -1 -8 3 -5 6 6 6 11 1 17 -2 13 -5z m749 -97
c-14 -30 -26 -59 -26 -66 0 -7 -4 -10 -9 -7 -4 3 -14 -14 -21 -37 -7 -23 -26
-69 -44 -102 -17 -33 -38 -78 -45 -100 -8 -22 -44 -103 -81 -180 -37 -77 -73
-155 -81 -172 -8 -18 -17 -33 -20 -33 -3 0 -6 -6 -6 -12 0 -7 -18 -51 -40 -98
-23 -47 -64 -134 -93 -195 -89 -189 -130 -271 -124 -245 3 14 24 65 46 115 23
50 61 135 85 190 25 55 60 133 79 173 19 40 81 177 138 305 209 466 260 570
264 540 2 -12 -8 -46 -22 -76z m994 59 c0 -2 -7 -7 -16 -10 -8 -3 -12 -2 -9 4
6 10 25 14 25 6z m-400 -16 c0 -5 -2 -10 -4 -10 -3 0 -8 5 -11 10 -3 6 -1 10
4 10 6 0 11 -4 11 -10z m425 -130 c3 -5 1 -10 -4 -10 -6 0 -11 5 -11 10 0 6 2
10 4 10 3 0 8 -4 11 -10z m-1895 -50 c0 -5 -4 -10 -10 -10 -5 0 -10 5 -10 10
0 6 5 10 10 10 6 0 10 -4 10 -10z m-70 -80 c0 -5 -19 -10 -42 -9 -33 0 -38 2
-23 9 28 12 65 12 65 0z m2013 -10 c-7 -26 15 -53 39 -47 10 3 16 1 12 -4 -20
-32 -75 18 -61 55 9 23 16 20 10 -4z m337 -397 c-11 -17 -11 -17 -6 0 3 10 7
33 8 50 l1 32 4 -32 c2 -18 -1 -41 -7 -50z m-176 -177 c15 -38 24 -71 21 -74
-2 -3 -7 1 -9 9 -2 8 -14 40 -25 72 -12 32 -21 61 -21 64 0 14 10 -6 34 -71z"/>
<path d="M5060 3895 c0 -5 5 -17 10 -25 5 -8 10 -10 10 -5 0 6 -5 17 -10 25
-5 8 -10 11 -10 5z"/>
<path d="M5100 3866 c-12 -33 -12 -36 -1 -36 9 0 22 52 15 59 -2 2 -8 -8 -14
-23z"/>
<path d="M5050 3855 c0 -5 5 -17 10 -25 5 -8 10 -10 10 -5 0 6 -5 17 -10 25
-5 8 -10 11 -10 5z"/>
<path d="M2963 3833 c9 -2 23 -2 30 0 6 3 -1 5 -18 5 -16 0 -22 -2 -12 -5z"/>
<path d="M5035 3820 c-3 -5 -1 -10 4 -10 6 0 11 5 11 10 0 6 -2 10 -4 10 -3 0
-8 -4 -11 -10z"/>
<path d="M5130 3820 c0 -5 5 -10 10 -10 6 0 10 5 10 10 0 6 -4 10 -10 10 -5 0
-10 -4 -10 -10z"/>
<path d="M5012 3800 c2 -14 6 -27 9 -30 3 -3 13 -16 23 -30 l18 -25 -7 25 c-4
14 -16 39 -26 55 -19 29 -19 29 -17 5z"/>
<path d="M5081 3794 c0 -11 3 -14 6 -6 3 7 2 16 -1 19 -3 4 -6 -2 -5 -13z"/>
<path d="M5155 3800 c-3 -5 -1 -10 4 -10 6 0 11 5 11 10 0 6 -2 10 -4 10 -3 0
-8 -4 -11 -10z"/>
<path d="M5175 3780 c-3 -5 -1 -10 4 -10 6 0 11 5 11 10 0 6 -2 10 -4 10 -3 0
-8 -4 -11 -10z"/>
<path d="M5060 3764 c0 -3 6 -12 14 -20 11 -10 17 -11 22 -3 5 8 13 4 25 -12
14 -18 19 -20 19 -8 0 22 -26 43 -45 35 -8 -3 -15 -1 -15 4 0 6 -4 10 -10 10
-5 0 -10 -3 -10 -6z"/>
<path d="M1560 3742 c0 -10 -5 -23 -12 -30 -9 -9 -7 -12 9 -12 12 0 24 6 27
13 5 10 7 10 12 0 3 -7 19 -13 35 -13 22 0 29 -5 29 -19 0 -17 4 -18 38 -10
20 5 55 9 77 10 26 1 31 3 15 6 -54 8 -70 14 -70 25 0 8 26 9 88 6 48 -3 96
-2 107 2 15 5 8 8 -25 9 -114 6 -183 1 -194 -14 -8 -10 -15 -12 -26 -5 -13 9
-13 11 0 20 20 13 4 13 -22 -1 -27 -14 -36 -3 -12 16 18 14 17 14 -10 5 -20
-8 -32 -8 -40 0 -15 15 -26 12 -26 -8z"/>
<path d="M5005 3750 c-3 -5 -1 -10 4 -10 6 0 11 5 11 10 0 6 -2 10 -4 10 -3 0
-8 -4 -11 -10z"/>
<path d="M5020 3720 c0 -5 5 -10 10 -10 6 0 10 5 10 10 0 6 -4 10 -10 10 -5 0
-10 -4 -10 -10z"/>
<path d="M5096 3715 c-3 -8 -1 -15 4 -15 6 0 10 7 10 15 0 8 -2 15 -4 15 -2 0
-6 -7 -10 -15z"/>
<path d="M5181 3714 c0 -11 3 -14 6 -6 3 7 2 16 -1 19 -3 4 -6 -2 -5 -13z"/>
<path d="M5145 3700 c-3 -5 -1 -10 4 -10 6 0 11 5 11 10 0 6 -2 10 -4 10 -3 0
-8 -4 -11 -10z"/>
<path d="M1180 3691 c0 -16 26 -19 45 -5 17 13 17 14 -13 14 -18 0 -32 -4 -32
-9z"/>
<path d="M1274 3684 c3 -9 6 -20 6 -26 0 -6 6 -6 15 2 22 18 18 40 -6 40 -15
0 -19 -4 -15 -16z"/>
<path d="M1855 3689 c-28 -6 -26 -7 13 -8 42 -1 53 3 30 11 -7 2 -26 1 -43 -3z"/>
<path d="M5195 3690 c-3 -5 -1 -10 4 -10 6 0 11 5 11 10 0 6 -2 10 -4 10 -3 0
-8 -4 -11 -10z"/>
<path d="M900 3675 c0 -8 2 -15 4 -15 2 0 6 7 10 15 3 8 1 15 -4 15 -6 0 -10
-7 -10 -15z"/>
<path d="M5046 3675 c4 -8 8 -15 10 -15 2 0 4 7 4 15 0 8 -4 15 -10 15 -5 0
-7 -7 -4 -15z"/>
<path d="M1588 3673 c7 -3 16 -2 19 1 4 3 -2 6 -13 5 -11 0 -14 -3 -6 -6z"/>
<path d="M5080 3665 c9 -10 9 -15 1 -15 -6 0 -11 -4 -11 -9 0 -5 10 -7 22 -3
14 3 19 1 14 -6 -3 -6 2 -16 13 -21 25 -14 41 -14 41 -1 0 5 -6 7 -13 4 -8 -3
-21 10 -32 31 -11 19 -26 35 -33 35 -12 0 -12 -3 -2 -15z"/>
<path d="M2270 3660 c0 -5 5 -10 11 -10 5 0 7 5 4 10 -3 6 -8 10 -11 10 -2 0
-4 -4 -4 -10z"/>
<path d="M5020 3649 c0 -5 5 -7 10 -4 6 3 10 8 10 11 0 2 -4 4 -10 4 -5 0 -10
-5 -10 -11z"/>
<path d="M5180 3605 c0 -5 5 -17 10 -25 5 -8 10 -10 10 -5 0 6 -5 17 -10 25
-5 8 -10 11 -10 5z"/>
<path d="M2204 3510 c0 -52 1 -74 3 -47 2 26 2 68 0 95 -2 26 -3 4 -3 -48z"/>
<path d="M5095 3590 c-3 -5 -1 -10 4 -10 6 0 11 5 11 10 0 6 -2 10 -4 10 -3 0
-8 -4 -11 -10z"/>
<path d="M5141 3572 c-17 -31 -13 -40 5 -14 9 13 14 26 11 29 -3 2 -10 -4 -16
-15z"/>
<path d="M5101 3545 c0 -5 6 -19 14 -29 8 -11 15 -15 15 -10 0 6 -7 19 -15 30
-8 10 -14 15 -14 9z"/>
<path d="M4811 3524 c0 -11 3 -14 6 -6 3 7 2 16 -1 19 -3 4 -6 -2 -5 -13z"/>
<path d="M2063 3455 c0 -27 2 -38 4 -22 2 15 2 37 0 50 -2 12 -4 0 -4 -28z"/>
<path d="M5060 3490 c0 -5 5 -10 11 -10 5 0 7 5 4 10 -3 6 -8 10 -11 10 -2 0
-4 -4 -4 -10z"/>
<path d="M5047 3454 c-3 -4 1 -13 9 -21 8 -9 18 -12 22 -8 4 4 1 10 -6 12 -6
3 -10 9 -6 14 6 10 -9 12 -19 3z"/>
<path d="M2198 3383 c-2 -10 -1 -52 3 -93 l6 -75 1 93 c2 89 -1 112 -10 75z"/>
<path d="M963 3290 c0 -41 2 -58 4 -37 2 20 2 54 0 75 -2 20 -4 3 -4 -38z"/>
<path d="M1558 3253 c7 -3 16 -2 19 1 4 3 -2 6 -13 5 -11 0 -14 -3 -6 -6z"/>
<path d="M1572 3200 c0 -19 2 -27 5 -17 2 9 2 25 0 35 -3 9 -5 1 -5 -18z"/>
<path d="M387 3060 c-3 -11 -1 -20 4 -20 5 0 9 9 9 20 0 11 -2 20 -4 20 -2 0
-6 -9 -9 -20z"/>
<path d="M2108 3009 c-27 -15 -22 -30 7 -23 18 4 32 1 45 -11 17 -16 20 -16
20 -2 0 18 -26 47 -43 47 -7 0 -20 -5 -29 -11z"/>
<path d="M2063 2922 c2 -18 0 -35 -4 -37 -8 -6 12 -55 23 -55 4 0 4 8 1 17 -5
13 -2 15 11 10 10 -4 23 -7 29 -7 7 0 6 -4 -3 -10 -12 -7 -8 -10 14 -10 l29 0
-23 20 c-21 18 -20 25 3 21 4 0 7 6 7 14 0 9 -9 15 -23 15 -26 0 -51 17 -61
40 -3 8 -4 0 -3 -18z"/>
<path d="M2170 2901 c0 -6 5 -13 10 -16 6 -3 10 1 10 9 0 9 -4 16 -10 16 -5 0
-10 -4 -10 -9z"/>
<path d="M2185 2840 c-3 -5 -1 -10 4 -10 6 0 11 5 11 10 0 6 -2 10 -4 10 -3 0
-8 -4 -11 -10z"/>
<path d="M2008 2613 c6 -2 18 -2 25 0 6 3 1 5 -13 5 -14 0 -19 -2 -12 -5z"/>
<path d="M3449 2558 c-2 -13 -1 -50 2 -83 6 -59 6 -59 7 23 2 80 -2 105 -9 60z"/>
<path d="M1771 2534 c0 -11 3 -14 6 -6 3 7 2 16 -1 19 -3 4 -6 -2 -5 -13z"/>
<path d="M3600 2460 c0 -5 5 -10 10 -10 6 0 10 5 10 10 0 6 -4 10 -10 10 -5 0
-10 -4 -10 -10z"/>
<path d="M3595 2427 c-8 -19 -2 -31 13 -26 5 2 6 13 2 24 -7 19 -8 19 -15 2z"/>
<path d="M3590 2329 c0 -18 2 -19 15 -9 15 12 12 30 -6 30 -5 0 -9 -10 -9 -21z"/>
<path d="M3290 2295 c-1 -11 -2 -23 -1 -27 2 -15 -17 -8 -23 7 -4 11 -13 14
-33 9 -16 -4 -31 -11 -34 -16 -3 -5 -9 -3 -12 6 -9 22 -34 20 -47 -3 -8 -16
-6 -22 7 -30 10 -6 13 -11 8 -11 -12 0 -14 -80 -3 -80 5 0 8 -9 8 -21 0 -11 5
-17 10 -14 6 4 10 -8 11 -27 1 -18 3 -25 6 -15 5 17 14 21 47 17 16 -1 18 3
13 30 -5 22 -3 32 8 36 17 7 48 107 42 137 -4 21 -4 21 -7 2z m-80 -170 c0 -8
-4 -15 -10 -15 -5 0 -10 7 -10 15 0 8 5 15 10 15 6 0 10 -7 10 -15z"/>
<path d="M3580 2276 c0 -15 4 -25 9 -22 5 3 11 -3 14 -14 3 -11 1 -23 -4 -26
-5 -3 -9 2 -9 10 0 9 -4 16 -10 16 -16 0 -12 -46 5 -60 9 -7 16 -11 18 -9 34
60 37 68 27 95 -6 15 -13 24 -17 20 -3 -3 -12 -1 -20 5 -10 9 -13 6 -13 -15z"/>
<path d="M4630 2290 c0 -5 5 -10 11 -10 5 0 7 5 4 10 -3 6 -8 10 -11 10 -2 0
-4 -4 -4 -10z"/>
<path d="M3436 2240 c-5 -30 -11 -62 -13 -70 -1 -8 -5 -33 -7 -55 -2 -22 -7
-71 -11 -110 -4 -38 -5 -67 -1 -64 10 10 37 129 35 154 -1 11 1 31 5 45 4 14
6 55 4 90 l-3 65 -9 -55z"/>
<path d="M3006 2261 c-4 -7 -5 -15 -2 -18 9 -9 19 4 14 18 -4 11 -6 11 -12 0z"/>
<path d="M4724 2204 c-18 -15 -18 -15 11 -9 37 8 57 25 29 25 -11 0 -29 -7
-40 -16z"/>
<path d="M1470 2199 c0 -5 5 -7 10 -4 6 3 10 8 10 11 0 2 -4 4 -10 4 -5 0 -10
-5 -10 -11z"/>
<path d="M4678 2183 c7 -3 16 -2 19 1 4 3 -2 6 -13 5 -11 0 -14 -3 -6 -6z"/>
<path d="M2920 2180 c-8 -26 -7 -41 2 -32 6 6 8 16 5 24 -3 7 -6 11 -7 8z"/>
<path d="M3306 2164 c-4 -9 -4 -19 -1 -22 2 -3 7 3 11 12 4 9 4 19 1 22 -2 3
-7 -3 -11 -12z"/>
<path d="M3340 2099 c0 -5 5 -7 10 -4 6 3 10 8 10 11 0 2 -4 4 -10 4 -5 0 -10
-5 -10 -11z"/>
<path d="M4811 2094 c0 -11 3 -14 6 -6 3 7 2 16 -1 19 -3 4 -6 -2 -5 -13z"/>
<path d="M3300 2085 c0 -8 4 -15 10 -15 5 0 7 7 4 15 -4 8 -8 15 -10 15 -2 0
-4 -7 -4 -15z"/>
<path d="M5130 2070 c0 -5 5 -10 11 -10 5 0 7 5 4 10 -3 6 -8 10 -11 10 -2 0
-4 -4 -4 -10z"/>
<path d="M3242 2030 c0 -14 2 -19 5 -12 2 6 2 18 0 25 -3 6 -5 1 -5 -13z"/>
<path d="M5100 2020 c0 -5 5 -10 11 -10 5 0 7 5 4 10 -3 6 -8 10 -11 10 -2 0
-4 -4 -4 -10z"/>
<path d="M1381 1954 c0 -11 3 -14 6 -6 3 7 2 16 -1 19 -3 4 -6 -2 -5 -13z"/>
<path d="M2291 1954 c0 -11 3 -14 6 -6 3 7 2 16 -1 19 -3 4 -6 -2 -5 -13z"/>
<path d="M2350 1825 c0 -8 4 -15 10 -15 5 0 7 7 4 15 -4 8 -8 15 -10 15 -2 0
-4 -7 -4 -15z"/>
<path d="M2380 1811 c0 -11 4 -22 9 -25 4 -3 6 6 3 19 -5 30 -12 33 -12 6z"/>
<path d="M2376 1755 c8 -37 14 -45 14 -19 0 10 -5 26 -10 34 -8 11 -9 7 -4
-15z"/>
<path d="M2503 1740 c0 -25 2 -35 4 -22 2 12 2 32 0 45 -2 12 -4 2 -4 -23z"/>
<path d="M2521 1764 c0 -11 3 -14 6 -6 3 7 2 16 -1 19 -3 4 -6 -2 -5 -13z"/>
<path d="M2541 1764 c0 -11 3 -14 6 -6 3 7 2 16 -1 19 -3 4 -6 -2 -5 -13z"/>
<path d="M1731 1744 c0 -11 3 -14 6 -6 3 7 2 16 -1 19 -3 4 -6 -2 -5 -13z"/>
<path d="M3380 1749 c0 -5 5 -7 10 -4 6 3 10 8 10 11 0 2 -4 4 -10 4 -5 0 -10
-5 -10 -11z"/>
<path d="M1755 1741 c-3 -5 -1 -12 5 -16 5 -3 10 1 10 9 0 18 -6 21 -15 7z"/>
<path d="M1740 1703 c8 -3 19 -11 23 -17 6 -7 7 -6 4 4 -2 8 -12 16 -23 17
-13 2 -15 1 -4 -4z"/>
<path d="M2390 1700 c0 -6 7 -10 15 -10 8 0 15 2 15 4 0 2 -7 6 -15 10 -8 3
-15 1 -15 -4z"/>
<path d="M3072 1693 c2 -10 10 -18 18 -18 8 0 16 8 18 18 2 12 -3 17 -18 17
-15 0 -20 -5 -18 -17z"/>
<path d="M1780 1686 c0 -9 5 -16 10 -16 6 0 10 4 10 9 0 6 -4 13 -10 16 -5 3
-10 -1 -10 -9z"/>
<path d="M2481 1684 c0 -11 3 -14 6 -6 3 7 2 16 -1 19 -3 4 -6 -2 -5 -13z"/>
<path d="M4721 1664 c0 -11 3 -14 6 -6 3 7 2 16 -1 19 -3 4 -6 -2 -5 -13z"/>
<path d="M1661 1594 c0 -11 3 -14 6 -6 3 7 2 16 -1 19 -3 4 -6 -2 -5 -13z"/>
<path d="M1341 1524 c0 -11 3 -14 6 -6 3 7 2 16 -1 19 -3 4 -6 -2 -5 -13z"/>
<path d="M1120 1505 c0 -8 5 -15 10 -15 6 0 10 7 10 15 0 8 -4 15 -10 15 -5 0
-10 -7 -10 -15z"/>
<path d="M3271 1464 c-6 -15 -9 -29 -7 -32 3 -2 10 8 16 23 14 36 7 43 -9 9z"/>
<path d="M4780 1454 c0 -8 43 -43 53 -44 4 0 -3 11 -17 25 -25 25 -36 31 -36
19z"/>
<path d="M3225 1390 c-3 -5 -1 -10 4 -10 6 0 11 5 11 10 0 6 -2 10 -4 10 -3 0
-8 -4 -11 -10z"/>
<path d="M4790 1380 c0 -5 5 -10 11 -10 5 0 7 -4 4 -10 -3 -5 -1 -10 4 -10 13
0 13 3 5 24 -7 18 -24 22 -24 6z"/>
<path d="M743 1373 c15 -2 37 -2 50 0 12 2 0 4 -28 4 -27 0 -38 -2 -22 -4z"/>
<path d="M4880 1370 c0 -5 5 -10 11 -10 5 0 7 5 4 10 -3 6 -8 10 -11 10 -2 0
-4 -4 -4 -10z"/>
<path d="M5454 1366 c11 -9 24 -16 30 -16 12 0 7 5 -24 19 -24 11 -24 11 -6
-3z"/>
<path d="M3370 1350 c0 -5 5 -10 10 -10 6 0 10 5 10 10 0 6 -4 10 -10 10 -5 0
-10 -4 -10 -10z"/>
<path d="M5675 1350 c3 -5 8 -10 11 -10 2 0 4 5 4 10 0 6 -5 10 -11 10 -5 0
-7 -4 -4 -10z"/>
<path d="M5625 1310 c3 -5 8 -10 11 -10 2 0 4 5 4 10 0 6 -5 10 -11 10 -5 0
-7 -4 -4 -10z"/>
<path d="M738 1303 c12 -2 32 -2 45 0 12 2 2 4 -23 4 -25 0 -35 -2 -22 -4z"/>
<path d="M5570 1269 c0 -5 5 -7 10 -4 6 3 10 8 10 11 0 2 -4 4 -10 4 -5 0 -10
-5 -10 -11z"/>
<path d="M5605 1260 c-3 -5 -1 -10 4 -10 6 0 11 5 11 10 0 6 -2 10 -4 10 -3 0
-8 -4 -11 -10z"/>
<path d="M5670 1230 c0 -5 5 -10 10 -10 6 0 10 5 10 10 0 6 -4 10 -10 10 -5 0
-10 -4 -10 -10z"/>
<path d="M3326 1205 c4 -8 10 -15 15 -15 4 0 6 7 3 15 -4 8 -10 15 -15 15 -4
0 -6 -7 -3 -15z"/>
<path d="M5200 1199 c0 -5 5 -7 10 -4 6 3 10 8 10 11 0 2 -4 4 -10 4 -5 0 -10
-5 -10 -11z"/>
<path d="M4750 1190 c0 -5 5 -10 10 -10 6 0 10 5 10 10 0 6 -4 10 -10 10 -5 0
-10 -4 -10 -10z"/>
<path d="M5565 1180 c3 -5 8 -10 11 -10 2 0 4 5 4 10 0 6 -5 10 -11 10 -5 0
-7 -4 -4 -10z"/>
<path d="M4725 1170 c-3 -5 -1 -10 4 -10 6 0 11 5 11 10 0 6 -2 10 -4 10 -3 0
-8 -4 -11 -10z"/>
<path d="M5655 1170 c4 -6 11 -8 16 -5 14 9 11 15 -7 15 -8 0 -12 -5 -9 -10z"/>
<path d="M2904 1148 c4 -13 14 -52 21 -88 29 -126 75 -230 129 -288 17 -18 30
-36 30 -40 -3 -15 23 -39 49 -46 36 -9 133 4 115 15 -7 5 -20 6 -30 3 -19 -6
-84 29 -115 62 -42 46 -73 91 -73 107 0 10 -4 17 -8 17 -10 0 -45 71 -38 77 3
3 -1 12 -9 19 -7 7 -16 33 -20 56 -4 24 -13 53 -21 65 -8 12 -14 31 -14 43 0
11 -5 20 -11 20 -7 0 -9 -9 -5 -22z"/>
<path d="M3470 1145 c0 -8 5 -15 10 -15 6 0 10 7 10 15 0 8 -4 15 -10 15 -5 0
-10 -7 -10 -15z"/>
<path d="M3010 1140 c0 -5 5 -10 11 -10 5 0 7 5 4 10 -3 6 -8 10 -11 10 -2 0
-4 -4 -4 -10z"/>
<path d="M3038 1106 c-7 -33 14 -52 32 -31 11 14 10 19 -7 36 l-20 21 -5 -26z"/>
<path d="M5640 1120 c0 -5 5 -10 10 -10 6 0 10 5 10 10 0 6 -4 10 -10 10 -5 0
-10 -4 -10 -10z"/>
<path d="M5680 1110 c0 -5 5 -10 11 -10 5 0 7 5 4 10 -3 6 -8 10 -11 10 -2 0
-4 -4 -4 -10z"/>
<path d="M400 1092 c0 -10 3 -21 6 -25 10 -9 32 16 27 30 -8 20 -33 15 -33 -5z"/>
<path d="M4730 1099 c0 -5 5 -7 10 -4 6 3 10 8 10 11 0 2 -4 4 -10 4 -5 0 -10
-5 -10 -11z"/>
<path d="M3488 1093 c7 -3 16 -2 19 1 4 3 -2 6 -13 5 -11 0 -14 -3 -6 -6z"/>
<path d="M5635 1060 c3 -5 8 -10 11 -10 2 0 4 5 4 10 0 6 -5 10 -11 10 -5 0
-7 -4 -4 -10z"/>
<path d="M3490 1034 c0 -8 5 -12 10 -9 6 3 10 10 10 16 0 5 -4 9 -10 9 -5 0
-10 -7 -10 -16z"/>
<path d="M252 1021 c-11 -7 -11 -9 2 -14 20 -8 48 2 40 14 -7 11 -25 11 -42 0z"/>
<path d="M3230 1006 c8 -7 29 -16 45 -20 l30 -6 -24 20 c-27 24 -75 30 -51 6z"/>
<path d="M5620 1010 c0 -5 5 -10 11 -10 5 0 7 5 4 10 -3 6 -8 10 -11 10 -2 0
-4 -4 -4 -10z"/>
<path d="M5685 980 c3 -5 8 -10 11 -10 2 0 4 5 4 10 0 6 -5 10 -11 10 -5 0 -7
-4 -4 -10z"/>
<path d="M5575 960 c3 -5 8 -10 11 -10 2 0 4 5 4 10 0 6 -5 10 -11 10 -5 0 -7
-4 -4 -10z"/>
<path d="M3140 950 c0 -5 5 -10 11 -10 5 0 7 5 4 10 -3 6 -8 10 -11 10 -2 0
-4 -4 -4 -10z"/>
<path d="M5605 950 c3 -5 8 -10 11 -10 2 0 4 5 4 10 0 6 -5 10 -11 10 -5 0 -7
-4 -4 -10z"/>
<path d="M2872 880 c0 -14 2 -19 5 -12 2 6 2 18 0 25 -3 6 -5 1 -5 -13z"/>
<path d="M5595 889 c4 -6 10 -8 13 -5 3 3 11 1 19 -5 8 -7 13 -8 13 -1 0 5 -7
13 -16 16 -24 9 -36 7 -29 -5z"/>
<path d="M3388 873 c7 -3 16 -2 19 1 4 3 -2 6 -13 5 -11 0 -14 -3 -6 -6z"/>
<path d="M5660 870 c0 -5 5 -10 10 -10 6 0 10 5 10 10 0 6 -4 10 -10 10 -5 0
-10 -4 -10 -10z"/>
<path d="M5585 830 c3 -5 8 -10 11 -10 2 0 4 5 4 10 0 6 -5 10 -11 10 -5 0 -7
-4 -4 -10z"/>
<path d="M4440 810 c0 -5 5 -10 10 -10 6 0 10 5 10 10 0 6 -4 10 -10 10 -5 0
-10 -4 -10 -10z"/>
<path d="M3455 800 c3 -5 11 -10 16 -10 6 0 7 5 4 10 -3 6 -11 10 -16 10 -6 0
-7 -4 -4 -10z"/>
<path d="M4590 799 c0 -5 5 -7 10 -4 6 3 10 8 10 11 0 2 -4 4 -10 4 -5 0 -10
-5 -10 -11z"/>
<path d="M5675 800 c3 -5 8 -10 11 -10 2 0 4 5 4 10 0 6 -5 10 -11 10 -5 0 -7
-4 -4 -10z"/>
<path d="M4430 780 c0 -5 5 -10 11 -10 5 0 7 5 4 10 -3 6 -8 10 -11 10 -2 0
-4 -4 -4 -10z"/>
<path d="M5540 779 c0 -5 5 -7 10 -4 6 3 10 8 10 11 0 2 -4 4 -10 4 -5 0 -10
-5 -10 -11z"/>
<path d="M5570 781 c0 -5 5 -13 10 -16 6 -3 10 -2 10 4 0 5 -4 13 -10 16 -5 3
-10 2 -10 -4z"/>
<path d="M5600 760 c0 -5 5 -10 10 -10 6 0 10 5 10 10 0 6 -4 10 -10 10 -5 0
-10 -4 -10 -10z"/>
<path d="M4445 750 c-3 -5 -1 -10 4 -10 6 0 11 5 11 10 0 6 -2 10 -4 10 -3 0
-8 -4 -11 -10z"/>
<path d="M5630 750 c0 -5 5 -10 11 -10 5 0 7 5 4 10 -3 6 -8 10 -11 10 -2 0
-4 -4 -4 -10z"/>
<path d="M5660 740 c0 -5 5 -10 10 -10 6 0 10 5 10 10 0 6 -4 10 -10 10 -5 0
-10 -4 -10 -10z"/>
<path d="M4595 730 c-3 -5 -1 -10 4 -10 6 0 11 5 11 10 0 6 -2 10 -4 10 -3 0
-8 -4 -11 -10z"/>
<path d="M5140 719 c0 -5 5 -7 10 -4 6 3 10 8 10 11 0 2 -4 4 -10 4 -5 0 -10
-5 -10 -11z"/>
<path d="M5535 720 c3 -5 8 -10 11 -10 2 0 4 5 4 10 0 6 -5 10 -11 10 -5 0 -7
-4 -4 -10z"/>
<path d="M4565 710 c-3 -5 -1 -10 4 -10 6 0 11 5 11 10 0 6 -2 10 -4 10 -3 0
-8 -4 -11 -10z"/>
<path d="M5565 710 c3 -5 8 -10 11 -10 2 0 4 5 4 10 0 6 -5 10 -11 10 -5 0 -7
-4 -4 -10z"/>
<path d="M5595 700 c3 -5 8 -10 11 -10 2 0 4 5 4 10 0 6 -5 10 -11 10 -5 0 -7
-4 -4 -10z"/>
<path d="M5625 701 c-3 -5 -1 -12 5 -16 5 -3 10 1 10 9 0 18 -6 21 -15 7z"/>
<path d="M4410 689 c0 -5 5 -7 10 -4 6 3 10 8 10 11 0 2 -4 4 -10 4 -5 0 -10
-5 -10 -11z"/>
<path d="M5117 693 c-10 -9 -9 -23 2 -23 5 0 11 7 15 15 5 15 -5 20 -17 8z"/>
<path d="M4760 679 c0 -5 5 -7 10 -4 6 3 10 8 10 11 0 2 -4 4 -10 4 -5 0 -10
-5 -10 -11z"/>
<path d="M5665 680 c27 -12 43 -12 25 0 -8 5 -22 9 -30 9 -10 0 -8 -3 5 -9z"/>
<path d="M4705 670 c-3 -5 -1 -10 4 -10 6 0 11 5 11 10 0 6 -2 10 -4 10 -3 0
-8 -4 -11 -10z"/>
<path d="M5170 661 c0 -5 7 -22 15 -38 9 -15 20 -41 26 -58 10 -27 12 -28 19
-10 16 38 11 61 -15 73 -14 6 -25 18 -25 27 0 8 -4 15 -10 15 -5 0 -10 -4 -10
-9z"/>
<path d="M5525 660 c3 -5 8 -10 11 -10 2 0 4 5 4 10 0 6 -5 10 -11 10 -5 0 -7
-4 -4 -10z"/>
<path d="M5090 650 c-8 -5 -11 -12 -7 -16 4 -4 13 -2 19 4 15 15 7 24 -12 12z"/>
<path d="M5586 635 c4 -8 10 -12 15 -9 11 6 2 24 -11 24 -5 0 -7 -7 -4 -15z"/>
<path d="M5155 601 c3 -18 5 -51 5 -73 0 -23 4 -37 10 -33 12 7 6 80 -10 115
-10 23 -10 23 -5 -9z"/>
<path d="M5645 620 c3 -5 8 -10 11 -10 2 0 4 5 4 10 0 6 -5 10 -11 10 -5 0 -7
-4 -4 -10z"/>
<path d="M5670 620 c0 -6 7 -10 15 -10 8 0 15 2 15 4 0 2 -7 6 -15 10 -8 3
-15 1 -15 -4z"/>
<path d="M4365 610 c-3 -5 -1 -10 4 -10 6 0 11 5 11 10 0 6 -2 10 -4 10 -3 0
-8 -4 -11 -10z"/>
<path d="M4600 609 c0 -5 5 -7 10 -4 6 3 10 8 10 11 0 2 -4 4 -10 4 -5 0 -10
-5 -10 -11z"/>
<path d="M5047 602 c-22 -24 -21 -32 1 -32 27 0 62 -29 63 -53 1 -12 5 -4 9
17 4 22 5 49 1 60 -8 28 -52 32 -74 8z m58 -12 c3 -5 -3 -10 -14 -10 -12 0
-21 5 -21 10 0 6 6 10 14 10 8 0 18 -4 21 -10z"/>
<path d="M5600 576 c0 -7 36 -22 75 -32 14 -3 25 -2 25 4 0 5 -16 13 -36 16
-19 4 -42 10 -50 13 -8 3 -14 2 -14 -1z"/>
<path d="M4978 556 c-10 -7 -18 -19 -18 -26 0 -10 3 -10 15 0 12 10 16 7 25
-16 13 -34 57 -73 84 -74 12 0 16 -5 13 -15 -4 -8 -2 -17 4 -21 11 -7 39 13
39 28 0 6 -7 5 -15 -2 -12 -10 -15 -10 -15 3 0 8 -13 21 -29 28 -20 9 -29 20
-28 33 1 10 -5 21 -13 23 -13 4 -13 3 0 -6 13 -9 13 -11 -1 -11 -17 0 -43 46
-34 61 9 13 -7 11 -27 -5z"/>
<path d="M5570 520 c0 -5 5 -10 10 -10 6 0 10 5 10 10 0 6 -4 10 -10 10 -5 0
-10 -4 -10 -10z"/>
<path d="M5600 512 c0 -6 15 -13 33 -17 17 -4 40 -9 50 -11 9 -3 17 -1 17 4 0
5 -16 13 -36 16 -19 4 -42 10 -50 13 -8 3 -14 1 -14 -5z"/>
<path d="M5177 492 c-23 -25 -23 -50 -1 -31 13 10 17 10 24 -2 6 -9 8 -6 6 14
-4 37 -10 40 -29 19z"/>
<path d="M5595 450 c3 -5 8 -10 11 -10 2 0 4 5 4 10 0 6 -5 10 -11 10 -5 0 -7
-4 -4 -10z"/>
<path d="M5620 452 c0 -13 25 -22 57 -22 32 0 25 10 -9 14 -13 1 -29 6 -36 10
-7 4 -12 3 -12 -2z"/>
<path d="M4855 420 c-3 -5 -1 -10 4 -10 6 0 11 5 11 10 0 6 -2 10 -4 10 -3 0
-8 -4 -11 -10z"/>
<path d="M4370 399 c0 -5 5 -7 10 -4 6 3 10 8 10 11 0 2 -4 4 -10 4 -5 0 -10
-5 -10 -11z"/>
<path d="M5058 403 c7 -3 16 -2 19 1 4 3 -2 6 -13 5 -11 0 -14 -3 -6 -6z"/>
<path d="M5585 390 c3 -5 8 -10 11 -10 2 0 4 5 4 10 0 6 -5 10 -11 10 -5 0 -7
-4 -4 -10z"/>
<path d="M5620 382 c0 -8 3 -13 6 -9 3 3 17 1 31 -4 18 -7 24 -6 21 3 -2 6
-16 15 -31 19 -21 6 -27 4 -27 -9z"/>
<path d="M4608 367 c-16 -6 -28 -14 -28 -19 0 -14 17 -9 41 12 27 22 26 22
-13 7z"/>
<path d="M4311 354 c0 -11 3 -14 6 -6 3 7 2 16 -1 19 -3 4 -6 -2 -5 -13z"/>
<path d="M4345 340 c-3 -5 -1 -10 4 -10 6 0 11 5 11 10 0 6 -2 10 -4 10 -3 0
-8 -4 -11 -10z"/>
<path d="M4810 340 c0 -5 5 -10 10 -10 6 0 10 5 10 10 0 6 -4 10 -10 10 -5 0
-10 -4 -10 -10z"/>
<path d="M5575 341 c-3 -5 -1 -12 5 -16 5 -3 10 1 10 9 0 18 -6 21 -15 7z"/>
<path d="M5600 330 c0 -5 5 -10 11 -10 5 0 7 5 4 10 -3 6 -8 10 -11 10 -2 0
-4 -4 -4 -10z"/>
<path d="M5630 320 c0 -5 5 -10 10 -10 6 0 10 5 10 10 0 6 -4 10 -10 10 -5 0
-10 -4 -10 -10z"/>
<path d="M4326 294 c-4 -14 -5 -28 -3 -31 3 -2 8 8 11 23 4 14 5 28 3 31 -3 2
-8 -8 -11 -23z"/>
<path d="M4745 300 c-3 -5 -1 -10 4 -10 6 0 11 5 11 10 0 6 -2 10 -4 10 -3 0
-8 -4 -11 -10z"/>
<path d="M5506 285 c-3 -9 -6 -22 -5 -28 0 -7 5 -1 10 12 5 13 8 26 5 28 -2 2
-6 -3 -10 -12z"/>
<path d="M5530 279 c0 -5 5 -7 10 -4 6 3 10 8 10 11 0 2 -4 4 -10 4 -5 0 -10
-5 -10 -11z"/>
<path d="M5560 270 c0 -5 5 -10 10 -10 6 0 10 5 10 10 0 6 -4 10 -10 10 -5 0
-10 -4 -10 -10z"/>
<path d="M5590 264 c0 -8 5 -12 10 -9 6 4 8 11 5 16 -9 14 -15 11 -15 -7z"/>
<path d="M5490 230 c0 -5 5 -10 10 -10 6 0 10 5 10 10 0 6 -4 10 -10 10 -5 0
-10 -4 -10 -10z"/>
<path d="M4345 220 c-3 -5 -1 -10 4 -10 6 0 11 5 11 10 0 6 -2 10 -4 10 -3 0
-8 -4 -11 -10z"/>
<path d="M4298 213 c6 -2 18 -2 25 0 6 3 1 5 -13 5 -14 0 -19 -2 -12 -5z"/>
<path d="M5487 199 c7 -7 15 -10 18 -7 3 3 -2 9 -12 12 -14 6 -15 5 -6 -5z"/>
<path d="M5580 199 c0 -5 5 -7 10 -4 6 3 10 8 10 11 0 2 -4 4 -10 4 -5 0 -10
-5 -10 -11z"/>
<path d="M5610 196 c0 -9 5 -16 10 -16 6 0 10 4 10 9 0 6 -4 13 -10 16 -5 3
-10 -1 -10 -9z"/>
<path d="M4335 190 c-3 -5 1 -10 10 -10 9 0 13 5 10 10 -3 6 -8 10 -10 10 -2
0 -7 -4 -10 -10z"/>
<path d="M5640 186 c0 -2 7 -6 15 -10 8 -3 15 -1 15 4 0 6 -7 10 -15 10 -8 0
-15 -2 -15 -4z"/>
<path d="M3040 170 c0 -5 4 -10 9 -10 6 0 13 5 16 10 3 6 -1 10 -9 10 -9 0
-16 -4 -16 -10z"/>
<path d="M3146 164 c-18 -18 -20 -30 -6 -39 6 -3 10 1 10 9 0 8 7 19 16 24 10
6 13 12 6 16 -6 3 -18 -1 -26 -10z"/>
<path d="M5470 170 c0 -5 5 -10 10 -10 6 0 10 5 10 10 0 6 -4 10 -10 10 -5 0
-10 -4 -10 -10z"/>
<path d="M5540 150 c0 -5 5 -10 11 -10 5 0 7 5 4 10 -3 6 -8 10 -11 10 -2 0
-4 -4 -4 -10z"/>
<path d="M4320 141 c0 -6 5 -13 10 -16 6 -3 10 1 10 9 0 9 -4 16 -10 16 -5 0
-10 -4 -10 -9z"/>
<path d="M5570 140 c0 -5 5 -10 10 -10 6 0 10 5 10 10 0 6 -4 10 -10 10 -5 0
-10 -4 -10 -10z"/>
<path d="M3231 126 c-7 -8 -14 -32 -16 -53 l-4 -38 12 33 c7 19 24 42 37 53
24 18 24 19 4 19 -12 0 -27 -6 -33 -14z"/>
<path d="M5650 120 c0 -5 5 -10 10 -10 6 0 10 5 10 10 0 6 -4 10 -10 10 -5 0
-10 -4 -10 -10z"/>
<path d="M3316 94 c-24 -23 -19 -37 6 -20 12 9 32 16 43 16 16 0 17 2 5 10
-21 14 -36 12 -54 -6z"/>
<path d="M4516 91 c-7 -10 22 -37 30 -28 4 3 -1 13 -9 22 -9 8 -18 11 -21 6z"/>
<path d="M5530 90 c0 -5 5 -10 11 -10 5 0 7 5 4 10 -3 6 -8 10 -11 10 -2 0 -4
-4 -4 -10z"/>
<path d="M5590 69 c0 -5 5 -7 10 -4 6 3 10 8 10 11 0 2 -4 4 -10 4 -5 0 -10
-5 -10 -11z"/>
<path d="M4576 55 c10 -8 26 -14 34 -14 9 0 4 6 -10 14 -33 19 -49 19 -24 0z"/>
<path d="M3377 40 c-9 -11 -17 -26 -17 -33 0 -6 5 -4 11 6 6 11 25 25 43 33
30 13 30 13 6 14 -14 0 -33 -9 -43 -20z"/>
<path d="M5650 50 c0 -5 5 -10 11 -10 5 0 7 5 4 10 -3 6 -8 10 -11 10 -2 0 -4
-4 -4 -10z"/>
<path d="M5520 30 c0 -5 5 -10 11 -10 5 0 7 5 4 10 -3 6 -8 10 -11 10 -2 0 -4
-4 -4 -10z"/>
<path d="M2982 15 c-11 -13 -10 -15 7 -15 14 0 19 5 15 15 -7 18 -6 18 -22 0z"/>
<path d="M3508 22 c-10 -2 -18 -8 -18 -13 0 -12 47 -12 54 0 7 11 -13 19 -36
13z"/>
<path d="M4121 14 c0 -11 3 -14 6 -6 3 7 2 16 -1 19 -3 4 -6 -2 -5 -13z"/>
<path d="M5590 10 c0 -5 5 -10 11 -10 5 0 7 5 4 10 -3 6 -8 10 -11 10 -2 0 -4
-4 -4 -10z"/>
</g>
</svg>
